<?xml version="1.0" encoding="utf-8" standalone="no"?>
<!DOCTYPE svg PUBLIC "-//W3C//DTD SVG 1.1//EN"
  "http://www.w3.org/Graphics/SVG/1.1/DTD/svg11.dtd">
<svg xmlns:xlink="http://www.w3.org/1999/xlink" width="460.8pt" height="345.6pt" viewBox="0 0 460.8 345.6" xmlns="http://www.w3.org/2000/svg" version="1.1">
 <metadata>
  <rdf:RDF xmlns:dc="http://purl.org/dc/elements/1.1/" xmlns:cc="http://creativecommons.org/ns#" xmlns:rdf="http://www.w3.org/1999/02/22-rdf-syntax-ns#">
   <cc:Work>
    <dc:type rdf:resource="http://purl.org/dc/dcmitype/StillImage"/>
    <dc:date>2023-12-07T09:39:00.411648</dc:date>
    <dc:format>image/svg+xml</dc:format>
    <dc:creator>
     <cc:Agent>
      <dc:title>Matplotlib v3.6.3, https://matplotlib.org/</dc:title>
     </cc:Agent>
    </dc:creator>
   </cc:Work>
  </rdf:RDF>
 </metadata>
 <defs>
  <style type="text/css">*{stroke-linejoin: round; stroke-linecap: butt}</style>
 </defs>
 <g id="figure_1">
  <g id="patch_1">
   <path d="M 0 345.6 
L 460.8 345.6 
L 460.8 0 
L 0 0 
z
" style="fill: #ffffff"/>
  </g>
  <g id="axes_1">
   <g id="patch_2">
    <path d="M 57.6 307.584 
L 414.72 307.584 
L 414.72 41.472 
L 57.6 41.472 
z
" style="fill: #ffffff"/>
   </g>
   <g id="matplotlib.axis_1">
    <g id="xtick_1">
     <g id="line2d_1">
      <defs>
       <path id="mfdee2ed814" d="M 0 0 
L 0 3.5 
" style="stroke: #000000; stroke-width: 0.8"/>
      </defs>
      <g>
       <use xlink:href="#mfdee2ed814" x="73.832727" y="307.584" style="stroke: #000000; stroke-width: 0.8"/>
      </g>
     </g>
     <g id="text_1">
      <!-- 0.0 -->
      <g transform="translate(65.881165 322.182437) scale(0.1 -0.1)">
       <defs>
        <path id="DejaVuSans-30" d="M 2034 4250 
Q 1547 4250 1301 3770 
Q 1056 3291 1056 2328 
Q 1056 1369 1301 889 
Q 1547 409 2034 409 
Q 2525 409 2770 889 
Q 3016 1369 3016 2328 
Q 3016 3291 2770 3770 
Q 2525 4250 2034 4250 
z
M 2034 4750 
Q 2819 4750 3233 4129 
Q 3647 3509 3647 2328 
Q 3647 1150 3233 529 
Q 2819 -91 2034 -91 
Q 1250 -91 836 529 
Q 422 1150 422 2328 
Q 422 3509 836 4129 
Q 1250 4750 2034 4750 
z
" transform="scale(0.015625)"/>
        <path id="DejaVuSans-2e" d="M 684 794 
L 1344 794 
L 1344 0 
L 684 0 
L 684 794 
z
" transform="scale(0.015625)"/>
       </defs>
       <use xlink:href="#DejaVuSans-30"/>
       <use xlink:href="#DejaVuSans-2e" x="63.623047"/>
       <use xlink:href="#DejaVuSans-30" x="95.410156"/>
      </g>
     </g>
    </g>
    <g id="xtick_2">
     <g id="line2d_2">
      <g>
       <use xlink:href="#mfdee2ed814" x="138.763636" y="307.584" style="stroke: #000000; stroke-width: 0.8"/>
      </g>
     </g>
     <g id="text_2">
      <!-- 0.2 -->
      <g transform="translate(130.812074 322.182437) scale(0.1 -0.1)">
       <defs>
        <path id="DejaVuSans-32" d="M 1228 531 
L 3431 531 
L 3431 0 
L 469 0 
L 469 531 
Q 828 903 1448 1529 
Q 2069 2156 2228 2338 
Q 2531 2678 2651 2914 
Q 2772 3150 2772 3378 
Q 2772 3750 2511 3984 
Q 2250 4219 1831 4219 
Q 1534 4219 1204 4116 
Q 875 4013 500 3803 
L 500 4441 
Q 881 4594 1212 4672 
Q 1544 4750 1819 4750 
Q 2544 4750 2975 4387 
Q 3406 4025 3406 3419 
Q 3406 3131 3298 2873 
Q 3191 2616 2906 2266 
Q 2828 2175 2409 1742 
Q 1991 1309 1228 531 
z
" transform="scale(0.015625)"/>
       </defs>
       <use xlink:href="#DejaVuSans-30"/>
       <use xlink:href="#DejaVuSans-2e" x="63.623047"/>
       <use xlink:href="#DejaVuSans-32" x="95.410156"/>
      </g>
     </g>
    </g>
    <g id="xtick_3">
     <g id="line2d_3">
      <g>
       <use xlink:href="#mfdee2ed814" x="203.694545" y="307.584" style="stroke: #000000; stroke-width: 0.8"/>
      </g>
     </g>
     <g id="text_3">
      <!-- 0.4 -->
      <g transform="translate(195.742983 322.182437) scale(0.1 -0.1)">
       <defs>
        <path id="DejaVuSans-34" d="M 2419 4116 
L 825 1625 
L 2419 1625 
L 2419 4116 
z
M 2253 4666 
L 3047 4666 
L 3047 1625 
L 3713 1625 
L 3713 1100 
L 3047 1100 
L 3047 0 
L 2419 0 
L 2419 1100 
L 313 1100 
L 313 1709 
L 2253 4666 
z
" transform="scale(0.015625)"/>
       </defs>
       <use xlink:href="#DejaVuSans-30"/>
       <use xlink:href="#DejaVuSans-2e" x="63.623047"/>
       <use xlink:href="#DejaVuSans-34" x="95.410156"/>
      </g>
     </g>
    </g>
    <g id="xtick_4">
     <g id="line2d_4">
      <g>
       <use xlink:href="#mfdee2ed814" x="268.625455" y="307.584" style="stroke: #000000; stroke-width: 0.8"/>
      </g>
     </g>
     <g id="text_4">
      <!-- 0.6 -->
      <g transform="translate(260.673892 322.182437) scale(0.1 -0.1)">
       <defs>
        <path id="DejaVuSans-36" d="M 2113 2584 
Q 1688 2584 1439 2293 
Q 1191 2003 1191 1497 
Q 1191 994 1439 701 
Q 1688 409 2113 409 
Q 2538 409 2786 701 
Q 3034 994 3034 1497 
Q 3034 2003 2786 2293 
Q 2538 2584 2113 2584 
z
M 3366 4563 
L 3366 3988 
Q 3128 4100 2886 4159 
Q 2644 4219 2406 4219 
Q 1781 4219 1451 3797 
Q 1122 3375 1075 2522 
Q 1259 2794 1537 2939 
Q 1816 3084 2150 3084 
Q 2853 3084 3261 2657 
Q 3669 2231 3669 1497 
Q 3669 778 3244 343 
Q 2819 -91 2113 -91 
Q 1303 -91 875 529 
Q 447 1150 447 2328 
Q 447 3434 972 4092 
Q 1497 4750 2381 4750 
Q 2619 4750 2861 4703 
Q 3103 4656 3366 4563 
z
" transform="scale(0.015625)"/>
       </defs>
       <use xlink:href="#DejaVuSans-30"/>
       <use xlink:href="#DejaVuSans-2e" x="63.623047"/>
       <use xlink:href="#DejaVuSans-36" x="95.410156"/>
      </g>
     </g>
    </g>
    <g id="xtick_5">
     <g id="line2d_5">
      <g>
       <use xlink:href="#mfdee2ed814" x="333.556364" y="307.584" style="stroke: #000000; stroke-width: 0.8"/>
      </g>
     </g>
     <g id="text_5">
      <!-- 0.8 -->
      <g transform="translate(325.604801 322.182437) scale(0.1 -0.1)">
       <defs>
        <path id="DejaVuSans-38" d="M 2034 2216 
Q 1584 2216 1326 1975 
Q 1069 1734 1069 1313 
Q 1069 891 1326 650 
Q 1584 409 2034 409 
Q 2484 409 2743 651 
Q 3003 894 3003 1313 
Q 3003 1734 2745 1975 
Q 2488 2216 2034 2216 
z
M 1403 2484 
Q 997 2584 770 2862 
Q 544 3141 544 3541 
Q 544 4100 942 4425 
Q 1341 4750 2034 4750 
Q 2731 4750 3128 4425 
Q 3525 4100 3525 3541 
Q 3525 3141 3298 2862 
Q 3072 2584 2669 2484 
Q 3125 2378 3379 2068 
Q 3634 1759 3634 1313 
Q 3634 634 3220 271 
Q 2806 -91 2034 -91 
Q 1263 -91 848 271 
Q 434 634 434 1313 
Q 434 1759 690 2068 
Q 947 2378 1403 2484 
z
M 1172 3481 
Q 1172 3119 1398 2916 
Q 1625 2713 2034 2713 
Q 2441 2713 2670 2916 
Q 2900 3119 2900 3481 
Q 2900 3844 2670 4047 
Q 2441 4250 2034 4250 
Q 1625 4250 1398 4047 
Q 1172 3844 1172 3481 
z
" transform="scale(0.015625)"/>
       </defs>
       <use xlink:href="#DejaVuSans-30"/>
       <use xlink:href="#DejaVuSans-2e" x="63.623047"/>
       <use xlink:href="#DejaVuSans-38" x="95.410156"/>
      </g>
     </g>
    </g>
    <g id="xtick_6">
     <g id="line2d_6">
      <g>
       <use xlink:href="#mfdee2ed814" x="398.487273" y="307.584" style="stroke: #000000; stroke-width: 0.8"/>
      </g>
     </g>
     <g id="text_6">
      <!-- 1.0 -->
      <g transform="translate(390.53571 322.182437) scale(0.1 -0.1)">
       <defs>
        <path id="DejaVuSans-31" d="M 794 531 
L 1825 531 
L 1825 4091 
L 703 3866 
L 703 4441 
L 1819 4666 
L 2450 4666 
L 2450 531 
L 3481 531 
L 3481 0 
L 794 0 
L 794 531 
z
" transform="scale(0.015625)"/>
       </defs>
       <use xlink:href="#DejaVuSans-31"/>
       <use xlink:href="#DejaVuSans-2e" x="63.623047"/>
       <use xlink:href="#DejaVuSans-30" x="95.410156"/>
      </g>
     </g>
    </g>
    <g id="text_7">
     <!-- Recall (Positive label: 1) -->
     <g transform="translate(176.343594 335.860562) scale(0.1 -0.1)">
      <defs>
       <path id="DejaVuSans-52" d="M 2841 2188 
Q 3044 2119 3236 1894 
Q 3428 1669 3622 1275 
L 4263 0 
L 3584 0 
L 2988 1197 
Q 2756 1666 2539 1819 
Q 2322 1972 1947 1972 
L 1259 1972 
L 1259 0 
L 628 0 
L 628 4666 
L 2053 4666 
Q 2853 4666 3247 4331 
Q 3641 3997 3641 3322 
Q 3641 2881 3436 2590 
Q 3231 2300 2841 2188 
z
M 1259 4147 
L 1259 2491 
L 2053 2491 
Q 2509 2491 2742 2702 
Q 2975 2913 2975 3322 
Q 2975 3731 2742 3939 
Q 2509 4147 2053 4147 
L 1259 4147 
z
" transform="scale(0.015625)"/>
       <path id="DejaVuSans-65" d="M 3597 1894 
L 3597 1613 
L 953 1613 
Q 991 1019 1311 708 
Q 1631 397 2203 397 
Q 2534 397 2845 478 
Q 3156 559 3463 722 
L 3463 178 
Q 3153 47 2828 -22 
Q 2503 -91 2169 -91 
Q 1331 -91 842 396 
Q 353 884 353 1716 
Q 353 2575 817 3079 
Q 1281 3584 2069 3584 
Q 2775 3584 3186 3129 
Q 3597 2675 3597 1894 
z
M 3022 2063 
Q 3016 2534 2758 2815 
Q 2500 3097 2075 3097 
Q 1594 3097 1305 2825 
Q 1016 2553 972 2059 
L 3022 2063 
z
" transform="scale(0.015625)"/>
       <path id="DejaVuSans-63" d="M 3122 3366 
L 3122 2828 
Q 2878 2963 2633 3030 
Q 2388 3097 2138 3097 
Q 1578 3097 1268 2742 
Q 959 2388 959 1747 
Q 959 1106 1268 751 
Q 1578 397 2138 397 
Q 2388 397 2633 464 
Q 2878 531 3122 666 
L 3122 134 
Q 2881 22 2623 -34 
Q 2366 -91 2075 -91 
Q 1284 -91 818 406 
Q 353 903 353 1747 
Q 353 2603 823 3093 
Q 1294 3584 2113 3584 
Q 2378 3584 2631 3529 
Q 2884 3475 3122 3366 
z
" transform="scale(0.015625)"/>
       <path id="DejaVuSans-61" d="M 2194 1759 
Q 1497 1759 1228 1600 
Q 959 1441 959 1056 
Q 959 750 1161 570 
Q 1363 391 1709 391 
Q 2188 391 2477 730 
Q 2766 1069 2766 1631 
L 2766 1759 
L 2194 1759 
z
M 3341 1997 
L 3341 0 
L 2766 0 
L 2766 531 
Q 2569 213 2275 61 
Q 1981 -91 1556 -91 
Q 1019 -91 701 211 
Q 384 513 384 1019 
Q 384 1609 779 1909 
Q 1175 2209 1959 2209 
L 2766 2209 
L 2766 2266 
Q 2766 2663 2505 2880 
Q 2244 3097 1772 3097 
Q 1472 3097 1187 3025 
Q 903 2953 641 2809 
L 641 3341 
Q 956 3463 1253 3523 
Q 1550 3584 1831 3584 
Q 2591 3584 2966 3190 
Q 3341 2797 3341 1997 
z
" transform="scale(0.015625)"/>
       <path id="DejaVuSans-6c" d="M 603 4863 
L 1178 4863 
L 1178 0 
L 603 0 
L 603 4863 
z
" transform="scale(0.015625)"/>
       <path id="DejaVuSans-20" transform="scale(0.015625)"/>
       <path id="DejaVuSans-28" d="M 1984 4856 
Q 1566 4138 1362 3434 
Q 1159 2731 1159 2009 
Q 1159 1288 1364 580 
Q 1569 -128 1984 -844 
L 1484 -844 
Q 1016 -109 783 600 
Q 550 1309 550 2009 
Q 550 2706 781 3412 
Q 1013 4119 1484 4856 
L 1984 4856 
z
" transform="scale(0.015625)"/>
       <path id="DejaVuSans-50" d="M 1259 4147 
L 1259 2394 
L 2053 2394 
Q 2494 2394 2734 2622 
Q 2975 2850 2975 3272 
Q 2975 3691 2734 3919 
Q 2494 4147 2053 4147 
L 1259 4147 
z
M 628 4666 
L 2053 4666 
Q 2838 4666 3239 4311 
Q 3641 3956 3641 3272 
Q 3641 2581 3239 2228 
Q 2838 1875 2053 1875 
L 1259 1875 
L 1259 0 
L 628 0 
L 628 4666 
z
" transform="scale(0.015625)"/>
       <path id="DejaVuSans-6f" d="M 1959 3097 
Q 1497 3097 1228 2736 
Q 959 2375 959 1747 
Q 959 1119 1226 758 
Q 1494 397 1959 397 
Q 2419 397 2687 759 
Q 2956 1122 2956 1747 
Q 2956 2369 2687 2733 
Q 2419 3097 1959 3097 
z
M 1959 3584 
Q 2709 3584 3137 3096 
Q 3566 2609 3566 1747 
Q 3566 888 3137 398 
Q 2709 -91 1959 -91 
Q 1206 -91 779 398 
Q 353 888 353 1747 
Q 353 2609 779 3096 
Q 1206 3584 1959 3584 
z
" transform="scale(0.015625)"/>
       <path id="DejaVuSans-73" d="M 2834 3397 
L 2834 2853 
Q 2591 2978 2328 3040 
Q 2066 3103 1784 3103 
Q 1356 3103 1142 2972 
Q 928 2841 928 2578 
Q 928 2378 1081 2264 
Q 1234 2150 1697 2047 
L 1894 2003 
Q 2506 1872 2764 1633 
Q 3022 1394 3022 966 
Q 3022 478 2636 193 
Q 2250 -91 1575 -91 
Q 1294 -91 989 -36 
Q 684 19 347 128 
L 347 722 
Q 666 556 975 473 
Q 1284 391 1588 391 
Q 1994 391 2212 530 
Q 2431 669 2431 922 
Q 2431 1156 2273 1281 
Q 2116 1406 1581 1522 
L 1381 1569 
Q 847 1681 609 1914 
Q 372 2147 372 2553 
Q 372 3047 722 3315 
Q 1072 3584 1716 3584 
Q 2034 3584 2315 3537 
Q 2597 3491 2834 3397 
z
" transform="scale(0.015625)"/>
       <path id="DejaVuSans-69" d="M 603 3500 
L 1178 3500 
L 1178 0 
L 603 0 
L 603 3500 
z
M 603 4863 
L 1178 4863 
L 1178 4134 
L 603 4134 
L 603 4863 
z
" transform="scale(0.015625)"/>
       <path id="DejaVuSans-74" d="M 1172 4494 
L 1172 3500 
L 2356 3500 
L 2356 3053 
L 1172 3053 
L 1172 1153 
Q 1172 725 1289 603 
Q 1406 481 1766 481 
L 2356 481 
L 2356 0 
L 1766 0 
Q 1100 0 847 248 
Q 594 497 594 1153 
L 594 3053 
L 172 3053 
L 172 3500 
L 594 3500 
L 594 4494 
L 1172 4494 
z
" transform="scale(0.015625)"/>
       <path id="DejaVuSans-76" d="M 191 3500 
L 800 3500 
L 1894 563 
L 2988 3500 
L 3597 3500 
L 2284 0 
L 1503 0 
L 191 3500 
z
" transform="scale(0.015625)"/>
       <path id="DejaVuSans-62" d="M 3116 1747 
Q 3116 2381 2855 2742 
Q 2594 3103 2138 3103 
Q 1681 3103 1420 2742 
Q 1159 2381 1159 1747 
Q 1159 1113 1420 752 
Q 1681 391 2138 391 
Q 2594 391 2855 752 
Q 3116 1113 3116 1747 
z
M 1159 2969 
Q 1341 3281 1617 3432 
Q 1894 3584 2278 3584 
Q 2916 3584 3314 3078 
Q 3713 2572 3713 1747 
Q 3713 922 3314 415 
Q 2916 -91 2278 -91 
Q 1894 -91 1617 61 
Q 1341 213 1159 525 
L 1159 0 
L 581 0 
L 581 4863 
L 1159 4863 
L 1159 2969 
z
" transform="scale(0.015625)"/>
       <path id="DejaVuSans-3a" d="M 750 794 
L 1409 794 
L 1409 0 
L 750 0 
L 750 794 
z
M 750 3309 
L 1409 3309 
L 1409 2516 
L 750 2516 
L 750 3309 
z
" transform="scale(0.015625)"/>
       <path id="DejaVuSans-29" d="M 513 4856 
L 1013 4856 
Q 1481 4119 1714 3412 
Q 1947 2706 1947 2009 
Q 1947 1309 1714 600 
Q 1481 -109 1013 -844 
L 513 -844 
Q 928 -128 1133 580 
Q 1338 1288 1338 2009 
Q 1338 2731 1133 3434 
Q 928 4138 513 4856 
z
" transform="scale(0.015625)"/>
      </defs>
      <use xlink:href="#DejaVuSans-52"/>
      <use xlink:href="#DejaVuSans-65" x="64.982422"/>
      <use xlink:href="#DejaVuSans-63" x="126.505859"/>
      <use xlink:href="#DejaVuSans-61" x="181.486328"/>
      <use xlink:href="#DejaVuSans-6c" x="242.765625"/>
      <use xlink:href="#DejaVuSans-6c" x="270.548828"/>
      <use xlink:href="#DejaVuSans-20" x="298.332031"/>
      <use xlink:href="#DejaVuSans-28" x="330.119141"/>
      <use xlink:href="#DejaVuSans-50" x="369.132812"/>
      <use xlink:href="#DejaVuSans-6f" x="425.810547"/>
      <use xlink:href="#DejaVuSans-73" x="486.992188"/>
      <use xlink:href="#DejaVuSans-69" x="539.091797"/>
      <use xlink:href="#DejaVuSans-74" x="566.875"/>
      <use xlink:href="#DejaVuSans-69" x="606.083984"/>
      <use xlink:href="#DejaVuSans-76" x="633.867188"/>
      <use xlink:href="#DejaVuSans-65" x="693.046875"/>
      <use xlink:href="#DejaVuSans-20" x="754.570312"/>
      <use xlink:href="#DejaVuSans-6c" x="786.357422"/>
      <use xlink:href="#DejaVuSans-61" x="814.140625"/>
      <use xlink:href="#DejaVuSans-62" x="875.419922"/>
      <use xlink:href="#DejaVuSans-65" x="938.896484"/>
      <use xlink:href="#DejaVuSans-6c" x="1000.419922"/>
      <use xlink:href="#DejaVuSans-3a" x="1028.203125"/>
      <use xlink:href="#DejaVuSans-20" x="1061.894531"/>
      <use xlink:href="#DejaVuSans-31" x="1093.681641"/>
      <use xlink:href="#DejaVuSans-29" x="1157.304688"/>
     </g>
    </g>
   </g>
   <g id="matplotlib.axis_2">
    <g id="ytick_1">
     <g id="line2d_7">
      <defs>
       <path id="m5dd74d6dac" d="M 0 0 
L -3.5 0 
" style="stroke: #000000; stroke-width: 0.8"/>
      </defs>
      <g>
       <use xlink:href="#m5dd74d6dac" x="57.6" y="300.067984" style="stroke: #000000; stroke-width: 0.8"/>
      </g>
     </g>
     <g id="text_8">
      <!-- 0.0 -->
      <g transform="translate(34.696875 303.867202) scale(0.1 -0.1)">
       <use xlink:href="#DejaVuSans-30"/>
       <use xlink:href="#DejaVuSans-2e" x="63.623047"/>
       <use xlink:href="#DejaVuSans-30" x="95.410156"/>
      </g>
     </g>
    </g>
    <g id="ytick_2">
     <g id="line2d_8">
      <g>
       <use xlink:href="#m5dd74d6dac" x="57.6" y="250.767987" style="stroke: #000000; stroke-width: 0.8"/>
      </g>
     </g>
     <g id="text_9">
      <!-- 0.2 -->
      <g transform="translate(34.696875 254.567206) scale(0.1 -0.1)">
       <use xlink:href="#DejaVuSans-30"/>
       <use xlink:href="#DejaVuSans-2e" x="63.623047"/>
       <use xlink:href="#DejaVuSans-32" x="95.410156"/>
      </g>
     </g>
    </g>
    <g id="ytick_3">
     <g id="line2d_9">
      <g>
       <use xlink:href="#m5dd74d6dac" x="57.6" y="201.46799" style="stroke: #000000; stroke-width: 0.8"/>
      </g>
     </g>
     <g id="text_10">
      <!-- 0.4 -->
      <g transform="translate(34.696875 205.267209) scale(0.1 -0.1)">
       <use xlink:href="#DejaVuSans-30"/>
       <use xlink:href="#DejaVuSans-2e" x="63.623047"/>
       <use xlink:href="#DejaVuSans-34" x="95.410156"/>
      </g>
     </g>
    </g>
    <g id="ytick_4">
     <g id="line2d_10">
      <g>
       <use xlink:href="#m5dd74d6dac" x="57.6" y="152.167993" style="stroke: #000000; stroke-width: 0.8"/>
      </g>
     </g>
     <g id="text_11">
      <!-- 0.6 -->
      <g transform="translate(34.696875 155.967212) scale(0.1 -0.1)">
       <use xlink:href="#DejaVuSans-30"/>
       <use xlink:href="#DejaVuSans-2e" x="63.623047"/>
       <use xlink:href="#DejaVuSans-36" x="95.410156"/>
      </g>
     </g>
    </g>
    <g id="ytick_5">
     <g id="line2d_11">
      <g>
       <use xlink:href="#m5dd74d6dac" x="57.6" y="102.867997" style="stroke: #000000; stroke-width: 0.8"/>
      </g>
     </g>
     <g id="text_12">
      <!-- 0.8 -->
      <g transform="translate(34.696875 106.667215) scale(0.1 -0.1)">
       <use xlink:href="#DejaVuSans-30"/>
       <use xlink:href="#DejaVuSans-2e" x="63.623047"/>
       <use xlink:href="#DejaVuSans-38" x="95.410156"/>
      </g>
     </g>
    </g>
    <g id="ytick_6">
     <g id="line2d_12">
      <g>
       <use xlink:href="#m5dd74d6dac" x="57.6" y="53.568" style="stroke: #000000; stroke-width: 0.8"/>
      </g>
     </g>
     <g id="text_13">
      <!-- 1.0 -->
      <g transform="translate(34.696875 57.367219) scale(0.1 -0.1)">
       <use xlink:href="#DejaVuSans-31"/>
       <use xlink:href="#DejaVuSans-2e" x="63.623047"/>
       <use xlink:href="#DejaVuSans-30" x="95.410156"/>
      </g>
     </g>
    </g>
    <g id="text_14">
     <!-- Precision (Positive label: 1) -->
     <g transform="translate(28.617187 241.73425) rotate(-90) scale(0.1 -0.1)">
      <defs>
       <path id="DejaVuSans-72" d="M 2631 2963 
Q 2534 3019 2420 3045 
Q 2306 3072 2169 3072 
Q 1681 3072 1420 2755 
Q 1159 2438 1159 1844 
L 1159 0 
L 581 0 
L 581 3500 
L 1159 3500 
L 1159 2956 
Q 1341 3275 1631 3429 
Q 1922 3584 2338 3584 
Q 2397 3584 2469 3576 
Q 2541 3569 2628 3553 
L 2631 2963 
z
" transform="scale(0.015625)"/>
       <path id="DejaVuSans-6e" d="M 3513 2113 
L 3513 0 
L 2938 0 
L 2938 2094 
Q 2938 2591 2744 2837 
Q 2550 3084 2163 3084 
Q 1697 3084 1428 2787 
Q 1159 2491 1159 1978 
L 1159 0 
L 581 0 
L 581 3500 
L 1159 3500 
L 1159 2956 
Q 1366 3272 1645 3428 
Q 1925 3584 2291 3584 
Q 2894 3584 3203 3211 
Q 3513 2838 3513 2113 
z
" transform="scale(0.015625)"/>
      </defs>
      <use xlink:href="#DejaVuSans-50"/>
      <use xlink:href="#DejaVuSans-72" x="58.552734"/>
      <use xlink:href="#DejaVuSans-65" x="97.416016"/>
      <use xlink:href="#DejaVuSans-63" x="158.939453"/>
      <use xlink:href="#DejaVuSans-69" x="213.919922"/>
      <use xlink:href="#DejaVuSans-73" x="241.703125"/>
      <use xlink:href="#DejaVuSans-69" x="293.802734"/>
      <use xlink:href="#DejaVuSans-6f" x="321.585938"/>
      <use xlink:href="#DejaVuSans-6e" x="382.767578"/>
      <use xlink:href="#DejaVuSans-20" x="446.146484"/>
      <use xlink:href="#DejaVuSans-28" x="477.933594"/>
      <use xlink:href="#DejaVuSans-50" x="516.947266"/>
      <use xlink:href="#DejaVuSans-6f" x="573.625"/>
      <use xlink:href="#DejaVuSans-73" x="634.806641"/>
      <use xlink:href="#DejaVuSans-69" x="686.90625"/>
      <use xlink:href="#DejaVuSans-74" x="714.689453"/>
      <use xlink:href="#DejaVuSans-69" x="753.898438"/>
      <use xlink:href="#DejaVuSans-76" x="781.681641"/>
      <use xlink:href="#DejaVuSans-65" x="840.861328"/>
      <use xlink:href="#DejaVuSans-20" x="902.384766"/>
      <use xlink:href="#DejaVuSans-6c" x="934.171875"/>
      <use xlink:href="#DejaVuSans-61" x="961.955078"/>
      <use xlink:href="#DejaVuSans-62" x="1023.234375"/>
      <use xlink:href="#DejaVuSans-65" x="1086.710938"/>
      <use xlink:href="#DejaVuSans-6c" x="1148.234375"/>
      <use xlink:href="#DejaVuSans-3a" x="1176.017578"/>
      <use xlink:href="#DejaVuSans-20" x="1209.708984"/>
      <use xlink:href="#DejaVuSans-31" x="1241.496094"/>
      <use xlink:href="#DejaVuSans-29" x="1305.119141"/>
     </g>
    </g>
   </g>
   <g id="line2d_13">
    <path d="M 398.487273 295.488 
L 398.376355 266.503984 
L 398.37456 266.414181 
L 398.37456 266.392884 
L 398.263642 260.859822 
L 398.260251 260.760851 
L 398.260251 260.748712 
L 398.149333 256.709029 
L 398.145343 256.599627 
L 398.145343 256.597928 
L 398.034426 253.059683 
L 398.030436 252.948679 
L 398.030436 252.948575 
L 397.919518 250.294363 
L 397.913334 250.190816 
L 397.913334 250.183254 
L 397.802417 247.970789 
L 397.796631 247.865637 
L 397.796631 247.859685 
L 397.685714 245.891192 
L 397.681325 245.782142 
L 397.681325 245.780084 
L 397.570407 243.918395 
L 397.563425 243.807979 
L 397.563425 243.807286 
L 397.452508 242.325711 
L 397.442333 242.214996 
L 397.442333 242.214605 
L 397.331416 240.771973 
L 397.323835 240.662318 
L 397.323835 240.660871 
L 397.212918 239.327056 
L 397.201946 239.218025 
L 397.201946 239.215959 
L 397.091028 238.008036 
L 397.080255 237.903706 
L 397.080255 237.896932 
L 396.969338 236.686464 
L 396.957368 236.579596 
L 396.957368 236.575365 
L 396.846451 235.408149 
L 396.835479 235.297337 
L 396.835479 235.297041 
L 396.724561 234.191046 
L 396.7092 234.081067 
L 396.7092 234.07994 
L 396.598283 233.146851 
L 396.585515 233.036732 
L 396.585515 233.03576 
L 396.474598 232.076244 
L 396.460633 231.967135 
L 396.460633 231.965142 
L 396.349716 231.040475 
L 396.335751 230.929917 
L 396.335751 230.929372 
L 396.224833 230.059519 
L 396.20668 229.949864 
L 396.20668 229.948414 
L 396.095762 229.116981 
L 396.080401 229.008685 
L 396.080401 229.005875 
L 395.969484 228.237017 
L 395.952926 228.125924 
L 395.952926 228.125917 
L 395.842008 227.367584 
L 395.825849 227.256654 
L 395.825849 227.256473 
L 395.714932 226.447052 
L 395.700768 226.337488 
L 395.700768 226.335948 
L 395.58985 225.612318 
L 395.572096 225.502726 
L 395.572096 225.50122 
L 395.461178 224.785612 
L 395.441229 224.675053 
L 395.441229 224.674513 
L 395.330311 223.994991 
L 395.311758 223.886345 
L 395.311758 223.883894 
L 395.200841 223.214027 
L 395.182488 223.103313 
L 395.182488 223.102943 
L 395.07157 222.446519 
L 395.05202 222.335441 
L 395.05202 222.335413 
L 394.941102 221.633827 
L 394.923746 221.524271 
L 394.923746 221.522718 
L 394.812829 220.88385 
L 394.794875 220.773138 
L 394.794875 220.772743 
L 394.683957 220.097073 
L 394.662611 219.986457 
L 394.662611 219.985973 
L 394.551694 219.400115 
L 394.527954 219.289455 
L 394.527954 219.289011 
L 394.417236 218.730871 
L 394.417037 218.730888 
L 394.392499 218.621353 
L 394.392499 218.619779 
L 394.281582 218.030448 
L 394.260036 217.920569 
L 394.260036 217.919342 
L 394.149119 217.372979 
L 394.126377 217.262207 
L 394.126377 217.261878 
L 394.015459 216.680375 
L 393.99152 216.569453 
L 393.99152 216.569276 
L 393.880603 216.014631 
L 393.860055 215.90635 
L 393.860055 215.903537 
L 393.749137 215.371845 
L 393.725797 215.261063 
L 393.725797 215.260788 
L 393.614879 214.705528 
L 393.590142 214.595214 
L 393.590142 214.594435 
L 393.479225 214.051532 
L 393.453889 213.941329 
L 393.453889 213.940425 
L 393.342971 213.441275 
L 393.318434 213.331933 
L 393.318434 213.330177 
L 393.207516 212.84837 
L 393.181782 212.738243 
L 393.181782 212.737273 
L 393.070864 212.212624 
L 393.042736 212.101622 
L 393.042736 212.10154 
L 392.931818 211.6252 
L 392.902094 211.514302 
L 392.902094 211.514119 
L 392.791176 211.049277 
L 392.766439 210.938254 
L 392.766439 210.938169 
L 392.655522 210.492021 
L 392.629588 210.381646 
L 392.629588 210.380926 
L 392.51867 209.930509 
L 392.489345 209.819571 
L 392.489345 209.8194 
L 392.378427 209.387861 
L 392.34611 209.27734 
L 392.34611 209.276769 
L 392.235192 208.836026 
L 392.209059 208.72499 
L 392.209059 208.72492 
L 392.098141 208.242009 
L 392.072407 208.131759 
L 392.072407 208.130913 
L 391.961489 207.692392 
L 391.935555 207.582959 
L 391.935555 207.581297 
L 391.824638 207.141118 
L 391.795911 207.030591 
L 391.795911 207.030011 
L 391.684993 206.611591 
L 391.659059 206.501334 
L 391.659059 206.500501 
L 391.548142 206.083449 
L 391.518018 205.972639 
L 391.518018 205.972338 
L 391.407699 205.560813 
L 391.407101 205.560877 
L 391.378972 205.452381 
L 391.378972 205.449771 
L 391.268055 205.054321 
L 391.238729 204.943263 
L 391.238729 204.943231 
L 391.127812 204.49308 
L 391.098686 204.382435 
L 391.098686 204.381982 
L 391.098486 204.381995 
L 390.987768 203.99324 
L 390.95565 203.883002 
L 390.95565 203.882142 
L 390.844733 203.519863 
L 390.812215 203.409513 
L 390.812215 203.408763 
L 390.701298 203.026216 
L 390.671175 202.916719 
L 390.671175 202.915117 
L 390.560257 202.532819 
L 390.525745 202.421878 
L 390.525745 202.421721 
L 390.414827 202.054401 
L 390.38231 201.943493 
L 390.38231 201.943309 
L 390.271392 201.559703 
L 390.23708 201.449523 
L 390.23708 201.448615 
L 390.126162 201.0705 
L 390.097236 200.959491 
L 390.097236 200.959403 
L 389.986318 200.573908 
L 389.947218 200.46281 
L 389.947218 200.462822 
L 389.8363 200.116394 
L 389.80099 200.005295 
L 389.80099 200.005307 
L 389.690073 199.635411 
L 389.655162 199.524768 
L 389.655162 199.524313 
L 389.544244 199.137342 
L 389.513522 199.026951 
L 389.513522 199.026282 
L 389.402605 198.667473 
L 389.3651 198.557159 
L 389.3651 198.556378 
L 389.254183 198.189538 
L 389.221665 198.079075 
L 389.221665 198.078446 
L 389.110748 197.719254 
L 389.076236 197.608237 
L 389.076236 197.608167 
L 388.965318 197.268767 
L 388.928013 197.15818 
L 388.928013 197.157674 
L 388.817096 196.848309 
L 388.778195 196.738196 
L 388.778195 196.737218 
L 388.667277 196.424687 
L 388.627778 196.314507 
L 388.627778 196.313604 
L 388.51686 195.957683 
L 388.480752 195.846809 
L 388.480752 195.846596 
L 388.369834 195.532467 
L 388.331931 195.421547 
L 388.331931 195.42136 
L 388.221013 195.097579 
L 388.180317 194.9875 
L 388.180317 194.986486 
L 388.069399 194.659119 
L 388.025711 194.549528 
L 388.025711 194.548018 
L 387.914793 194.222756 
L 387.877089 194.112176 
L 387.877089 194.111694 
L 387.766171 193.788954 
L 387.727869 193.678263 
L 387.727869 193.677863 
L 387.616951 193.367785 
L 387.577851 193.256764 
L 387.577851 193.256685 
L 387.466933 192.944316 
L 387.425838 192.834026 
L 387.425838 192.833234 
L 387.31492 192.489251 
L 387.275222 192.380392 
L 387.275222 192.378155 
L 387.164304 192.052372 
L 387.12261 191.941396 
L 387.12261 191.941283 
L 387.011693 191.63903 
L 386.970996 191.528239 
L 386.970996 191.527942 
L 386.860079 191.207482 
L 386.819981 191.096624 
L 386.819981 191.096386 
L 386.709063 190.789895 
L 386.667569 190.679555 
L 386.667569 190.678789 
L 386.556651 190.367896 
L 386.515356 190.257271 
L 386.515356 190.256811 
L 386.404439 189.971868 
L 386.364141 189.860927 
L 386.364141 189.860777 
L 386.253224 189.585635 
L 386.214323 189.474583 
L 386.214323 189.474527 
L 386.103405 189.15001 
L 386.064105 189.039775 
L 386.064105 189.03892 
L 385.953188 188.739456 
L 385.918676 188.628844 
L 385.918676 188.628367 
L 385.807758 188.315153 
L 385.764668 188.205082 
L 385.764668 188.204049 
L 385.65375 187.919871 
L 385.615049 187.808802 
L 385.615049 187.808808 
L 385.504131 187.532103 
L 385.462836 187.421034 
L 385.462836 187.421007 
L 385.352118 187.132793 
L 385.351919 187.132799 
L 385.307831 187.022974 
L 385.307831 187.021752 
L 385.196913 186.726699 
L 385.15502 186.615706 
L 385.15502 186.615611 
L 385.044103 186.348548 
L 385.003007 186.238572 
L 385.003007 186.237465 
L 384.89209 185.981931 
L 384.848002 185.871459 
L 384.848002 185.870854 
L 384.737084 185.58254 
L 384.692398 185.472085 
L 384.692398 185.471475 
L 384.58148 185.201298 
L 384.541981 185.092002 
L 384.541981 185.090216 
L 384.431063 184.819144 
L 384.386178 184.708105 
L 384.386178 184.70804 
L 384.27546 184.433069 
L 384.27526 184.433108 
L 384.230973 184.322106 
L 384.230973 184.322005 
L 384.120055 184.031993 
L 384.070581 183.921379 
L 384.070581 183.920926 
L 383.959664 183.665457 
L 383.913382 183.554457 
L 383.913382 183.554354 
L 383.802464 183.304517 
L 383.753389 183.194804 
L 383.753389 183.193417 
L 383.642471 182.947572 
L 383.597586 182.837247 
L 383.597586 182.836497 
L 383.486668 182.574572 
L 383.440386 182.463638 
L 383.440386 182.463497 
L 383.329668 182.202462 
L 383.329468 182.202465 
L 383.284782 182.091598 
L 383.284782 182.091383 
L 383.174064 181.820743 
L 383.173865 181.820783 
L 383.119403 181.711103 
L 383.119403 181.709677 
L 383.008685 181.46068 
L 382.963999 181.350144 
L 382.963999 181.349593 
L 382.853081 181.108386 
L 382.801213 181.000336 
L 382.801213 180.997293 
L 382.690296 180.765585 
L 382.643814 180.654713 
L 382.643814 180.654491 
L 382.532897 180.406789 
L 382.479632 180.295739 
L 382.479632 180.295703 
L 382.368715 180.038462 
L 382.314652 179.927482 
L 382.314652 179.927371 
L 382.203735 179.698698 
L 382.150869 179.587873 
L 382.150869 179.587609 
L 382.040151 179.347903 
L 382.039952 179.347943 
L 381.993071 179.236881 
L 381.993071 179.236882 
L 381.882154 178.996799 
L 381.82869 178.886489 
L 381.82869 178.885718 
L 381.717772 178.639135 
L 381.667899 178.53005 
L 381.667899 178.528032 
L 381.557181 178.296695 
L 381.556982 178.296696 
L 381.503119 178.185609 
L 381.503119 178.18561 
L 381.392401 177.948912 
L 381.392201 177.948912 
L 381.334947 177.837827 
L 381.334947 177.837867 
L 381.224229 177.592727 
L 381.224029 177.592727 
L 381.169568 177.481967 
L 381.169568 177.481651 
L 381.058651 177.253334 
L 381.006384 177.14323 
L 381.006384 177.142275 
L 380.895466 176.90477 
L 380.840805 176.793921 
L 380.840805 176.793681 
L 380.729888 176.564103 
L 380.679616 176.453411 
L 380.679616 176.453007 
L 380.568698 176.221791 
L 380.509848 176.110877 
L 380.509848 176.110714 
L 380.39893 175.859188 
L 380.352449 175.748555 
L 380.352449 175.748146 
L 380.241531 175.509472 
L 380.187269 175.399218 
L 380.187269 175.398396 
L 380.076352 175.185656 
L 380.019696 175.074614 
L 380.019696 175.074571 
L 379.908778 174.848259 
L 379.854716 174.737175 
L 379.854716 174.737173 
L 379.743798 174.520567 
L 379.693526 174.409481 
L 379.693526 174.409479 
L 379.582609 174.18647 
L 379.52735 174.075388 
L 379.52735 174.075387 
L 379.416432 173.847485 
L 379.361173 173.737711 
L 379.361173 173.736399 
L 379.250255 173.506849 
L 379.191405 173.395808 
L 379.191405 173.395806 
L 379.080487 173.184828 
L 379.020241 173.073934 
L 379.020241 173.073718 
L 378.909323 172.840218 
L 378.851471 172.72914 
L 378.851471 172.729137 
L 378.740553 172.508884 
L 378.681902 172.398647 
L 378.681902 172.397778 
L 378.570985 172.170658 
L 378.515526 172.060326 
L 378.515526 172.059583 
L 378.404608 171.828691 
L 378.34895 171.717598 
L 378.34895 171.717595 
L 378.238033 171.511099 
L 378.181377 171.400374 
L 378.181377 171.400018 
L 378.070459 171.17826 
L 378.008018 171.067254 
L 378.008018 171.067161 
L 377.897101 170.848627 
L 377.836655 170.73861 
L 377.836655 170.737537 
L 377.725737 170.520007 
L 377.662498 170.40915 
L 377.662498 170.408921 
L 377.55158 170.203835 
L 377.495922 170.092753 
L 377.495922 170.092748 
L 377.385005 169.888373 
L 377.323561 169.777395 
L 377.323561 169.777299 
L 377.212643 169.567018 
L 377.156985 169.456149 
L 377.156985 169.455916 
L 377.046068 169.237325 
L 376.978839 169.126971 
L 376.978839 169.126234 
L 376.867921 168.927693 
L 376.800692 168.817418 
L 376.800692 168.816584 
L 376.689775 168.602278 
L 376.629528 168.49217 
L 376.629528 168.491193 
L 376.518611 168.294293 
L 376.455771 168.183884 
L 376.455771 168.183227 
L 376.344853 167.989517 
L 376.285205 167.879084 
L 376.285205 167.878424 
L 376.174287 167.683735 
L 376.106061 167.573231 
L 376.106061 167.572661 
L 375.995144 167.37802 
L 375.930309 167.267174 
L 375.930309 167.266931 
L 375.819391 167.071021 
L 375.752362 166.959977 
L 375.752362 166.95997 
L 375.641444 166.765495 
L 375.57641 166.655788 
L 375.57641 166.654397 
L 375.465492 166.460621 
L 375.405844 166.350244 
L 375.405844 166.349565 
L 375.294926 166.16421 
L 375.229892 166.053735 
L 375.229892 166.053101 
L 375.118974 165.848947 
L 375.056932 165.738181 
L 375.056932 165.737882 
L 374.946015 165.541093 
L 374.884571 165.430202 
L 374.884571 165.429999 
L 374.773654 165.239559 
L 374.712809 165.128658 
L 374.712809 165.128453 
L 374.601891 164.945437 
L 374.539251 164.83449 
L 374.539251 164.834333 
L 374.428333 164.640872 
L 374.367488 164.530118 
L 374.367488 164.529812 
L 374.25657 164.344385 
L 374.18595 164.233316 
L 374.18595 164.233307 
L 374.075033 164.029237 
L 374.004412 163.91831 
L 374.004412 163.918151 
L 373.893495 163.738411 
L 373.821478 163.627357 
L 373.821478 163.627347 
L 373.710561 163.423797 
L 373.643731 163.312951 
L 373.643731 163.312688 
L 373.532813 163.132521 
L 373.460198 163.02184 
L 373.460198 163.021424 
L 373.349281 162.86128 
L 373.281453 162.750328 
L 373.281453 162.750215 
L 373.170536 162.560618 
L 373.105102 162.44953 
L 373.105102 162.449519 
L 372.994185 162.266726 
L 372.928352 162.15604 
L 372.928352 162.155617 
L 372.817435 161.965835 
L 372.7526 161.854899 
L 372.7526 161.854732 
L 372.641682 161.673442 
L 372.572459 161.56259 
L 372.572459 161.56237 
L 372.461541 161.387754 
L 372.401893 161.276663 
L 372.401893 161.276651 
L 372.290975 161.097022 
L 372.221752 160.985976 
L 372.221752 160.985911 
L 372.110834 160.811309 
L 372.043406 160.700783 
L 372.043406 160.700243 
L 371.932488 160.508479 
L 371.854287 160.398095 
L 371.854287 160.397393 
L 371.74337 160.238667 
L 371.671154 160.127722 
L 371.671154 160.127603 
L 371.560236 159.945651 
L 371.487022 159.834624 
L 371.487022 159.834557 
L 371.376105 159.667009 
L 371.305485 159.555949 
L 371.305485 159.555936 
L 371.194567 159.389237 
L 371.124745 159.278682 
L 371.124745 159.278129 
L 371.013827 159.094817 
L 370.940813 158.984039 
L 370.940813 158.983754 
L 370.829896 158.811956 
L 370.761669 158.701093 
L 370.761669 158.700861 
L 370.650951 158.528504 
L 370.650752 158.528544 
L 370.577738 158.417637 
L 370.577738 158.417459 
L 370.46682 158.254772 
L 370.387223 158.143701 
L 370.387223 158.143687 
L 370.276305 157.986556 
L 370.197306 157.875737 
L 370.197306 157.875446 
L 370.086389 157.714584 
L 370.008387 157.60366 
L 370.008387 157.603534 
L 369.897669 157.449706 
L 369.89747 157.449746 
L 369.824655 157.339164 
L 369.824655 157.338648 
L 369.713738 157.179121 
L 369.638928 157.068276 
L 369.638928 157.068037 
L 369.528011 156.892163 
L 369.4536 156.782447 
L 369.4536 156.781082 
L 369.342682 156.61499 
L 369.263684 156.504343 
L 369.263684 156.503932 
L 369.152766 156.336475 
L 369.089926 156.225773 
L 369.089926 156.225416 
L 368.979008 156.052669 
L 368.907391 155.942727 
L 368.907391 155.941571 
L 368.796473 155.791975 
L 368.721863 155.681709 
L 368.721863 155.680892 
L 368.610946 155.495966 
L 368.54631 155.38676 
L 368.54631 155.384903 
L 368.435393 155.220612 
L 368.354598 155.109751 
L 368.354598 155.109503 
L 368.243681 154.948195 
L 368.172662 154.837165 
L 368.172662 154.83709 
L 368.061744 154.679041 
L 367.982546 154.568132 
L 367.982546 154.56794 
L 367.871628 154.401742 
L 367.797018 154.290913 
L 367.797018 154.29066 
L 367.6861 154.129777 
L 367.61149 154.019157 
L 367.61149 154.018669 
L 367.500772 153.857115 
L 367.500573 153.857155 
L 367.423968 153.746623 
L 367.423968 153.746073 
L 367.31325 153.591045 
L 367.31305 153.591086 
L 367.241832 153.481586 
L 367.241832 153.480026 
L 367.131114 153.321265 
L 367.130914 153.321306 
L 367.045532 153.2111 
L 367.045532 153.210307 
L 366.934813 153.044963 
L 366.934614 153.045003 
L 366.861999 152.934035 
L 366.861999 152.933896 
L 366.751081 152.778609 
L 366.670885 152.668456 
L 366.670885 152.667536 
L 366.559968 152.514673 
L 366.479573 152.40402 
L 366.479573 152.403578 
L 366.368655 152.240899 
L 366.296838 152.130193 
L 366.296838 152.129809 
L 366.18612 151.965064 
L 366.18592 151.965104 
L 366.103131 151.854424 
L 366.103131 151.854038 
L 365.992214 151.687467 
L 365.909424 151.576585 
L 365.909424 151.576381 
L 365.798507 151.42526 
L 365.708336 151.314163 
L 365.708336 151.314204 
L 365.597419 151.171569 
L 365.518819 151.060926 
L 365.518819 151.060473 
L 365.407901 150.907775 
L 365.332693 150.797025 
L 365.332693 150.796694 
L 365.221775 150.642574 
L 365.145968 150.532155 
L 365.145968 150.531512 
L 365.035051 150.385112 
L 364.956451 150.274177 
L 364.956451 150.27403 
L 364.845533 150.12024 
L 364.765138 150.009631 
L 364.765138 150.00917 
L 364.65422 149.860598 
L 364.57203 149.749508 
L 364.57203 149.749549 
L 364.461112 149.597867 
L 364.378323 149.486992 
L 364.378323 149.48678 
L 364.267405 149.341455 
L 364.191 149.230797 
L 364.191 149.230393 
L 364.080082 149.078405 
L 363.997293 148.967487 
L 363.997293 148.967336 
L 363.886376 148.830379 
L 363.810768 148.720317 
L 363.810768 148.71927 
L 363.699851 148.554637 
L 363.615066 148.443823 
L 363.615066 148.443542 
L 363.504149 148.28678 
L 363.415375 148.176287 
L 363.415375 148.175683 
L 363.304457 148.021709 
L 363.222865 147.910911 
L 363.222865 147.910627 
L 363.111947 147.75961 
L 363.025767 147.648684 
L 363.025767 147.648529 
L 362.914849 147.503303 
L 362.828868 147.393246 
L 362.828868 147.392242 
L 362.717951 147.246394 
L 362.63975 147.135365 
L 362.63975 147.135339 
L 362.528832 147.000103 
L 362.444846 146.889475 
L 362.444846 146.889054 
L 362.333929 146.760382 
L 362.251538 146.649998 
L 362.251538 146.649312 
L 362.14082 146.503933 
L 362.140621 146.503973 
L 362.058629 146.392926 
L 362.058629 146.392899 
L 361.947712 146.228997 
L 361.863127 146.118052 
L 361.863127 146.117892 
L 361.752409 145.961889 
L 361.75221 145.961929 
L 361.666029 145.851433 
L 361.666029 145.850871 
L 361.555112 145.700524 
L 361.458557 145.589496 
L 361.458557 145.589469 
L 361.348039 145.446464 
L 361.34764 145.446544 
L 361.259464 145.336137 
L 361.259464 145.335436 
L 361.148547 145.208664 
L 361.056182 145.098065 
L 361.056182 145.097564 
L 360.945264 144.954216 
L 360.859283 144.843716 
L 360.859283 144.843145 
L 360.858884 144.843157 
L 360.748366 144.709613 
L 360.667372 144.598571 
L 360.667372 144.598543 
L 360.556454 144.459826 
L 360.466284 144.349228 
L 360.466284 144.34872 
L 360.355366 144.202295 
L 360.263002 144.091679 
L 360.263002 144.091237 
L 360.152483 143.944869 
L 360.152084 143.94488 
L 360.059121 143.833856 
L 360.059121 143.833827 
L 359.948203 143.689686 
L 359.858831 143.579151 
L 359.858831 143.578636 
L 359.747913 143.434935 
L 359.653154 143.324122 
L 359.653154 143.323884 
L 359.542636 143.189331 
L 359.542237 143.189341 
L 359.457453 143.078821 
L 359.457453 143.078232 
L 359.346535 142.948887 
L 359.261751 142.837881 
L 359.261751 142.83778 
L 359.151033 142.696647 
L 359.150833 142.696687 
L 359.065251 142.585824 
L 359.065251 142.585582 
L 358.954733 142.454478 
L 358.954334 142.454558 
L 358.85778 142.343624 
L 358.85778 142.343452 
L 358.74786 142.210149 
L 358.746862 142.210207 
L 358.649111 142.099287 
L 358.649111 142.099114 
L 358.538193 141.97599 
L 358.450616 141.864972 
L 358.450616 141.864941 
L 358.339699 141.744411 
L 358.24873 141.634665 
L 358.24873 141.633348 
L 358.138012 141.492566 
L 358.137813 141.492606 
L 358.038665 141.381684 
L 358.038665 141.381508 
L 357.927748 141.23451 
L 357.83638 141.123451 
L 357.83638 141.123419 
L 357.725463 140.985331 
L 357.64427 140.874488 
L 357.64427 140.874239 
L 357.533352 140.74016 
L 357.438593 140.630363 
L 357.438593 140.629097 
L 357.327676 140.49005 
L 357.236707 140.37921 
L 357.236707 140.378958 
L 357.125989 140.251058 
L 357.028837 140.140225 
L 357.028837 140.139973 
L 356.917919 140.002239 
L 356.830941 139.891298 
L 356.830941 139.891191 
L 356.720023 139.756216 
L 356.622072 139.645735 
L 356.622072 139.645152 
L 356.511155 139.535023 
L 356.409414 139.424278 
L 356.409414 139.423948 
L 356.298496 139.29498 
L 356.207528 139.184198 
L 356.207528 139.183941 
L 356.09681 139.056219 
L 356.09661 139.056258 
L 356.001852 138.945665 
L 356.001852 138.945184 
L 355.891333 138.819094 
L 355.890934 138.819173 
L 355.787597 138.708294 
L 355.787597 138.708109 
L 355.67668 138.580264 
L 355.562171 138.469216 
L 355.562171 138.46918 
L 355.451254 138.346772 
L 355.365273 138.235984 
L 355.365273 138.235723 
L 355.254355 138.101769 
L 355.156205 137.990778 
L 355.156205 137.990666 
L 355.045287 137.867694 
L 354.946339 137.757436 
L 354.946339 137.756641 
L 354.835422 137.627886 
L 354.742458 137.517097 
L 354.742458 137.516832 
L 354.631541 137.392311 
L 354.536583 137.281588 
L 354.536583 137.281245 
L 354.535785 137.281249 
L 354.425665 137.157327 
L 354.328113 137.046249 
L 354.328113 137.046288 
L 354.217196 136.912222 
L 354.114457 136.801661 
L 354.114457 136.801238 
L 354.00354 136.666569 
L 353.923743 136.555781 
L 353.923743 136.555511 
L 353.813025 136.431276 
L 353.812825 136.431315 
L 353.722256 136.321017 
L 353.722256 136.320281 
L 353.611338 136.182104 
L 353.508002 136.071248 
L 353.508002 136.071053 
L 353.397084 135.947456 
L 353.292351 135.836383 
L 353.181433 135.704456 
L 353.078894 135.593701 
L 353.078894 135.593426 
L 352.967977 135.467941 
L 352.869029 135.356935 
L 352.869029 135.356896 
L 352.758111 135.225104 
L 352.659362 135.114036 
L 352.659362 135.113996 
L 352.548445 135.002745 
L 352.458274 134.891756 
L 352.458274 134.891636 
L 352.347357 134.774438 
L 352.248209 134.663389 
L 352.248209 134.663348 
L 352.137491 134.537799 
L 352.137292 134.537838 
L 352.036748 134.427932 
L 352.036748 134.426773 
L 351.92603 134.310829 
L 351.92583 134.310868 
L 351.818105 134.200615 
L 351.818105 134.199772 
L 351.707386 134.075705 
L 351.707187 134.075744 
L 351.612229 133.96484 
L 351.612229 133.964637 
L 351.501311 133.843291 
L 351.411141 133.732272 
L 351.411141 133.73223 
L 351.300223 133.605352 
L 351.201674 133.494354 
L 351.201674 133.494312 
L 351.090757 133.358686 
L 350.989016 133.247808 
L 350.989016 133.247603 
L 350.878298 133.134861 
L 350.783539 133.024117 
L 350.783539 133.023829 
L 350.672621 132.898805 
L 350.569085 132.787777 
L 350.569085 132.787773 
L 350.458167 132.674336 
L 350.362212 132.56346 
L 350.362212 132.563252 
L 350.251294 132.450158 
L 350.147159 132.339668 
L 350.147159 132.339047 
L 350.036441 132.217508 
L 350.036242 132.217546 
L 349.935099 132.107401 
L 349.935099 132.106447 
L 349.824182 131.99138 
L 349.723438 131.880444 
L 349.723438 131.880316 
L 349.612521 131.761601 
L 349.512974 131.650625 
L 349.512974 131.650498 
L 349.402256 131.526396 
L 349.402056 131.526435 
L 349.295129 131.415654 
L 349.295129 131.415358 
L 349.184211 131.287742 
L 349.06691 131.176709 
L 349.06691 131.176663 
L 348.955992 131.052768 
L 348.841683 130.941665 
L 348.841683 130.941703 
L 348.730766 130.830421 
L 348.635408 130.719325 
L 348.635408 130.719363 
L 348.52469 130.603852 
L 348.524491 130.603891 
L 348.417563 130.492869 
L 348.417563 130.492823 
L 348.306646 130.373886 
L 348.203309 130.262969 
L 348.203309 130.262837 
L 348.092391 130.139472 
L 347.993842 130.028602 
L 347.993842 130.028385 
L 347.883124 129.903851 
L 347.882925 129.90389 
L 347.777194 129.792895 
L 347.777194 129.792934 
L 347.666276 129.684545 
L 347.560545 129.573435 
L 347.560545 129.573474 
L 347.449628 129.459551 
L 347.347488 129.349008 
L 347.347488 129.348442 
L 347.23677 129.230026 
L 347.23657 129.230064 
L 347.125653 129.119003 
L 347.125653 129.118954 
L 347.014735 129.001542 
L 346.91858 128.89108 
L 346.91858 128.89051 
L 346.917981 128.890538 
L 346.807662 128.782256 
L 346.697543 128.671146 
L 346.697543 128.671185 
L 346.586625 128.560643 
L 346.485882 128.449633 
L 346.485882 128.449671 
L 346.375363 128.33789 
L 346.374964 128.337966 
L 346.273822 128.227189 
L 346.273822 128.226877 
L 346.162904 128.119184 
L 346.055178 128.008422 
L 346.055178 128.008108 
L 345.944261 127.891677 
L 345.838131 127.780579 
L 345.838131 127.780617 
L 345.727214 127.67245 
L 345.617493 127.561489 
L 345.617493 127.56135 
L 345.506575 127.443765 
L 345.400446 127.333955 
L 345.400446 127.332659 
L 345.289727 127.225759 
L 345.289528 127.225797 
L 345.157065 127.114744 
L 345.157065 127.114693 
L 345.046148 127.001655 
L 344.936427 126.890618 
L 344.936427 126.890567 
L 344.825509 126.785481 
L 344.714392 126.674433 
L 344.714392 126.674381 
L 344.603475 126.570297 
L 344.487769 126.459212 
L 344.487769 126.45925 
L 344.376852 126.346066 
L 344.273316 126.235002 
L 344.273316 126.23504 
L 344.162398 126.128355 
L 344.055869 126.018042 
L 344.055869 126.017263 
L 343.944952 125.915587 
L 343.824658 125.80525 
L 343.824658 125.80456 
L 343.71374 125.704739 
L 343.598234 125.59368 
L 343.598234 125.593718 
L 343.487716 125.490665 
L 343.487317 125.490741 
L 343.391361 125.379839 
L 343.391361 125.379693 
L 343.280843 125.26842 
L 343.280444 125.268495 
L 343.156759 125.157687 
L 343.156759 125.157449 
L 343.045841 125.058946 
L 342.923951 124.947987 
L 342.923951 124.94784 
L 342.813233 124.839099 
L 342.813034 124.839136 
L 342.696929 124.728463 
L 342.696929 124.728038 
L 342.58661 124.626274 
L 342.586012 124.626387 
L 342.471104 124.515776 
L 342.471104 124.51535 
L 342.360187 124.403513 
L 342.246875 124.292784 
L 342.246875 124.292449 
L 342.135958 124.188073 
L 342.019055 124.077003 
L 342.019055 124.07704 
L 341.908337 123.973035 
L 341.908138 123.973072 
L 341.795225 123.862106 
L 341.795225 123.86205 
L 341.684308 123.759812 
L 341.571595 123.649108 
L 341.571595 123.648769 
L 341.460677 123.540927 
L 341.339187 123.429895 
L 341.339187 123.429838 
L 341.228468 123.31848 
L 341.228269 123.318517 
L 341.10598 123.207536 
L 341.10598 123.207478 
L 340.995262 123.095839 
L 340.995063 123.095876 
L 340.865592 122.984806 
L 340.865592 122.984844 
L 340.754874 122.881963 
L 340.633583 122.771183 
L 340.633583 122.770934 
L 340.522666 122.671484 
L 340.403968 122.560529 
L 340.403968 122.560375 
L 340.29305 122.458215 
L 340.170363 122.347257 
L 340.170363 122.347199 
L 340.059445 122.249804 
L 339.948528 122.139284 
L 339.948528 122.138744 
L 339.83761 122.037191 
L 339.721905 121.926149 
L 339.721905 121.92609 
L 339.610987 121.829246 
L 339.493486 121.718382 
L 339.493486 121.718225 
L 339.382968 121.615864 
L 339.382569 121.615938 
L 339.254295 121.505158 
L 339.254295 121.504903 
L 339.143577 121.393778 
L 339.143378 121.393815 
L 339.041038 121.282723 
L 339.041038 121.28276 
L 338.930121 121.177953 
L 338.801648 121.066948 
L 338.801648 121.066887 
L 338.691528 120.968257 
L 338.69073 120.968306 
L 338.568242 120.857303 
L 338.568242 120.857241 
L 338.457325 120.747438 
L 338.336632 120.636379 
L 338.336632 120.636354 
L 338.225914 120.528422 
L 338.225714 120.528458 
L 338.085471 120.417409 
L 338.085471 120.417446 
L 337.974753 120.313411 
L 337.974554 120.313448 
L 337.849073 120.202367 
L 337.849073 120.202403 
L 337.738156 120.097475 
L 337.615867 119.98673 
L 337.615867 119.986369 
L 337.50495 119.877616 
L 337.390242 119.766767 
L 337.390242 119.766541 
L 337.279324 119.673332 
L 337.161424 119.56247 
L 337.161424 119.562306 
L 337.050507 119.460796 
L 336.927819 119.349755 
L 336.927819 119.349691 
L 336.816901 119.249975 
L 336.690822 119.138897 
L 336.690822 119.138933 
L 336.579905 119.044255 
L 336.45622 118.933399 
L 336.45622 118.933233 
L 336.345302 118.834421 
L 336.213239 118.723524 
L 336.213239 118.723358 
L 336.10252 118.625725 
L 335.980032 118.514754 
L 335.980032 118.514688 
L 335.979434 118.514696 
L 335.869115 118.424335 
L 335.740043 118.313409 
L 335.740043 118.313241 
L 335.629126 118.208819 
L 335.50185 118.097914 
L 335.50185 118.097745 
L 335.391132 117.996237 
L 335.390932 117.996273 
L 335.257871 117.885236 
L 335.257871 117.88517 
L 335.147153 117.794661 
L 335.146954 117.794697 
L 335.010102 117.684102 
L 335.010102 117.683623 
L 334.899583 117.593944 
L 334.899184 117.594017 
L 334.756348 117.483329 
L 334.756348 117.482952 
L 334.64583 117.37737 
L 334.645431 117.377442 
L 334.510773 117.26665 
L 334.510773 117.266375 
L 334.399856 117.162708 
L 334.276769 117.051739 
L 334.276769 117.051671 
L 334.165852 116.948306 
L 334.0292 116.837342 
L 334.0292 116.837274 
L 333.918282 116.750417 
L 333.786817 116.639325 
L 333.786817 116.639361 
L 333.676099 116.54131 
L 333.675899 116.541346 
L 333.545032 116.430417 
L 333.545032 116.430243 
L 333.434713 116.335609 
L 333.434115 116.335717 
L 333.305642 116.224745 
L 333.305642 116.224675 
L 333.194724 116.124483 
L 333.049694 116.013911 
L 333.049694 116.013418 
L 332.938776 115.921809 
L 332.81569 115.810859 
L 332.81569 115.810788 
L 332.704772 115.713601 
L 332.562734 115.602727 
L 332.562734 115.60255 
L 332.452016 115.515368 
L 332.451816 115.515404 
L 332.303195 115.404398 
L 332.303195 115.404327 
L 332.192277 115.314362 
L 332.059415 115.203921 
L 332.059415 115.203314 
L 331.948498 115.10322 
L 331.800076 114.992946 
L 331.800076 114.992122 
L 331.689158 114.888163 
L 331.557493 114.777101 
L 331.557493 114.777136 
L 331.446576 114.675012 
L 331.314512 114.564092 
L 331.314512 114.563911 
L 331.203594 114.472303 
L 331.049387 114.361727 
L 331.049387 114.36122 
L 330.938469 114.276618 
L 330.800421 114.165751 
L 330.800421 114.165569 
L 330.689902 114.08164 
L 330.689503 114.081711 
L 330.560632 113.970733 
L 330.560632 113.97066 
L 330.449714 113.87247 
L 330.311067 113.76189 
L 330.311067 113.761378 
L 330.201147 113.677191 
L 330.200149 113.677368 
L 330.063298 113.566354 
L 330.063298 113.56628 
L 329.95238 113.470596 
L 329.825503 113.360218 
L 329.825503 113.359592 
L 329.714985 113.26444 
L 329.714586 113.26451 
L 329.567361 113.15363 
L 329.567361 113.153444 
L 329.456443 113.050215 
L 329.324379 112.939165 
L 329.324379 112.9392 
L 329.213661 112.844283 
L 329.213462 112.844318 
L 329.067234 112.733302 
L 329.067234 112.733226 
L 328.956317 112.648202 
L 328.801511 112.537456 
L 328.801511 112.537157 
L 328.690593 112.451556 
L 328.551946 112.340526 
L 328.551946 112.340449 
L 328.441029 112.25506 
L 328.297594 112.145095 
L 328.297594 112.144007 
L 328.186676 112.055455 
L 328.03586 111.94475 
L 328.03586 111.944447 
L 327.925142 111.857411 
L 327.924943 111.857446 
L 327.766945 111.746706 
L 327.766945 111.746437 
L 327.656027 111.65149 
L 327.50182 111.540428 
L 327.50182 111.540463 
L 327.391102 111.447696 
L 327.23869 111.336749 
L 327.23869 111.33667 
L 327.127772 111.252892 
L 326.97955 111.141893 
L 326.97955 111.141814 
L 326.868632 111.063747 
L 326.721806 110.952973 
L 326.721806 110.952665 
L 326.610889 110.86786 
L 326.452891 110.75685 
L 326.452891 110.75677 
L 326.341973 110.66437 
L 326.204324 110.553373 
L 326.204324 110.553292 
L 326.093805 110.460674 
L 326.093406 110.460743 
L 325.947378 110.349699 
L 325.947378 110.349734 
L 325.836859 110.26726 
L 325.836461 110.267329 
L 325.688437 110.15641 
L 325.688437 110.156329 
L 325.57752 110.067667 
L 325.422116 109.956628 
L 325.422116 109.956662 
L 325.311397 109.864687 
L 325.311198 109.864722 
L 325.162576 109.75448 
L 325.162576 109.753698 
L 325.051659 109.66815 
L 324.910418 109.55723 
L 324.910418 109.557264 
L 324.7997 109.476837 
L 324.799501 109.476871 
L 324.656465 109.365818 
L 324.656465 109.365852 
L 324.545548 109.274087 
L 324.391141 109.163816 
L 324.391141 109.163026 
L 324.280423 109.074262 
L 324.280223 109.074296 
L 324.127612 108.963599 
L 324.127612 108.963279 
L 324.016694 108.886005 
L 323.868472 108.774935 
L 323.868472 108.77497 
L 323.757554 108.691331 
L 323.616912 108.581001 
L 323.616912 108.580322 
L 323.505994 108.490989 
L 323.356575 108.380273 
L 323.356575 108.379949 
L 323.246056 108.294593 
L 323.245657 108.294661 
L 323.095041 108.183569 
L 323.095041 108.183603 
L 322.984123 108.097484 
L 322.840489 107.986417 
L 322.840489 107.986451 
L 322.729771 107.904267 
L 322.729571 107.904301 
L 322.57297 107.793787 
L 322.57297 107.793219 
L 322.462651 107.717733 
L 322.462053 107.717835 
L 322.309641 107.60676 
L 322.309641 107.606794 
L 322.198723 107.520832 
L 322.050501 107.409912 
L 322.050501 107.409825 
L 321.939782 107.32614 
L 321.939583 107.326174 
L 321.775002 107.215502 
L 321.775002 107.215171 
L 321.665082 107.143643 
L 321.664084 107.143691 
L 321.506486 107.032845 
L 321.506486 107.032635 
L 321.395768 106.954974 
L 321.395568 106.955008 
L 321.229192 106.844331 
L 321.229192 106.843998 
L 321.118274 106.764947 
L 320.955688 106.654263 
L 320.955688 106.653929 
L 320.844771 106.584361 
L 320.68398 106.474278 
L 320.68398 106.473328 
L 320.573062 106.392646 
L 320.417259 106.281753 
L 320.417259 106.28154 
L 320.306741 106.201074 
L 320.306342 106.201141 
L 320.153132 106.090093 
L 320.153132 106.090126 
L 320.042214 106.012366 
L 319.881224 105.901796 
L 319.881224 105.901334 
L 319.770307 105.819153 
L 319.612109 105.708268 
L 319.612109 105.708053 
L 319.611311 105.708062 
L 319.501192 105.627399 
L 319.351373 105.516397 
L 319.351373 105.516306 
L 319.240655 105.434412 
L 319.240456 105.434446 
L 319.08545 105.323351 
L 319.08545 105.323384 
L 318.974732 105.243282 
L 318.974533 105.243316 
L 318.825313 105.132304 
L 318.825313 105.132212 
L 318.714395 105.051437 
L 318.565574 104.940408 
L 318.565574 104.940441 
L 318.455853 104.862413 
L 318.454656 104.862486 
L 318.313017 104.751586 
L 318.313017 104.751492 
L 318.2021 104.671322 
L 318.047294 104.560259 
L 318.047294 104.560292 
L 317.936376 104.477508 
L 317.79354 104.366542 
L 317.79354 104.366448 
L 317.682622 104.283833 
L 317.519039 104.173166 
L 317.519039 104.172816 
L 317.408321 104.091483 
L 317.408121 104.091515 
L 317.251719 103.980471 
L 317.251719 103.980504 
L 317.140802 103.908465 
L 316.982405 103.797429 
L 316.982405 103.797462 
L 316.871488 103.718964 
L 316.727454 103.608194 
L 316.727454 103.607969 
L 316.617933 103.537419 
L 316.616537 103.537519 
L 316.45435 103.426458 
L 316.45435 103.426491 
L 316.343432 103.341542 
L 316.15591 103.230785 
L 316.15591 103.230558 
L 316.044992 103.141358 
L 315.884202 103.03026 
L 315.884202 103.030292 
L 315.773683 102.943642 
L 315.773284 102.943707 
L 315.610698 102.833594 
L 315.610698 102.832715 
L 315.49978 102.759066 
L 315.346371 102.648048 
L 315.235852 102.572493 
L 315.235453 102.572558 
L 315.074064 102.4616 
L 315.074064 102.461501 
L 314.963147 102.386583 
L 314.812929 102.275587 
L 314.812929 102.275488 
L 314.702012 102.197368 
L 314.542219 102.086284 
L 314.542219 102.086317 
L 314.431301 102.005232 
L 314.265324 101.89415 
L 314.265324 101.894182 
L 314.154406 101.82639 
L 313.984439 101.715499 
L 313.984439 101.715399 
L 313.873721 101.646892 
L 313.873521 101.646924 
L 313.700961 101.536391 
L 313.700961 101.535891 
L 313.590043 101.463134 
L 313.404715 101.352051 
L 313.404715 101.352083 
L 313.293997 101.273774 
L 313.11605 101.162718 
L 313.11605 101.162782 
L 313.005132 101.087925 
L 312.834966 100.977052 
L 312.834966 100.976816 
L 312.725046 100.899737 
L 312.724048 100.899897 
L 312.565053 100.789186 
L 312.565053 100.788814 
L 312.454135 100.714001 
L 312.269805 100.603097 
L 312.269805 100.602994 
L 312.158887 100.53327 
L 312.012261 100.422516 
L 312.012261 100.422277 
L 311.901343 100.348741 
L 311.722199 100.237693 
L 311.722199 100.237725 
L 311.611481 100.169694 
L 311.611281 100.169726 
L 311.444905 100.059996 
L 311.444905 100.058665 
L 311.334187 99.988984 
L 311.333988 99.989016 
L 311.149856 99.878229 
L 311.149856 99.877988 
L 311.038939 99.81242 
L 310.86179 99.701565 
L 310.86179 99.701322 
L 310.751271 99.632394 
L 310.750872 99.632457 
L 310.591279 99.521935 
L 310.591279 99.521417 
L 310.48076 99.446283 
L 310.480361 99.446346 
L 310.304609 99.335293 
L 310.304609 99.335324 
L 310.19409 99.265809 
L 310.193691 99.265872 
L 310.024522 99.155112 
L 310.024522 99.154866 
L 309.913604 99.085675 
L 309.743238 98.974921 
L 309.743238 98.974674 
L 309.63232 98.89158 
L 309.448389 98.780933 
L 309.448389 98.780547 
L 309.337671 98.714621 
L 309.337471 98.714652 
L 309.16531 98.603646 
L 309.16531 98.603677 
L 309.054392 98.53415 
L 308.885821 98.423098 
L 308.885821 98.423129 
L 308.776699 98.358355 
L 308.774904 98.358495 
L 308.597156 98.247578 
L 308.597156 98.247468 
L 308.486239 98.177076 
L 308.304302 98.066305 
L 308.304302 98.066086 
L 308.193384 98.00202 
L 308.012645 97.890909 
L 308.012645 97.89094 
L 307.901727 97.822075 
L 307.720189 97.711037 
L 307.609272 97.635666 
L 307.433719 97.524778 
L 307.433719 97.524666 
L 307.323001 97.450052 
L 307.322801 97.450082 
L 307.130092 97.33908 
L 307.130092 97.339111 
L 307.019972 97.279639 
L 307.019174 97.279763 
L 306.842225 97.169149 
L 306.842225 97.168894 
L 306.731507 97.104823 
L 306.731307 97.104853 
L 306.559744 96.994528 
L 306.559744 96.993842 
L 306.448826 96.930104 
L 306.27467 96.819003 
L 306.27467 96.819034 
L 306.164351 96.745141 
L 306.163752 96.745232 
L 305.974833 96.634183 
L 305.974833 96.634214 
L 305.864115 96.573496 
L 305.686966 96.462492 
L 305.576448 96.397169 
L 305.576049 96.39723 
L 305.397902 96.286202 
L 305.397902 96.286232 
L 305.286985 96.221241 
L 305.095871 96.11041 
L 305.095871 96.110149 
L 304.984954 96.034966 
L 304.793641 95.923955 
L 304.793641 95.923985 
L 304.682923 95.852978 
L 304.682723 95.853008 
L 304.492209 95.741967 
L 304.492209 95.741997 
L 304.38169 95.675785 
L 304.381291 95.675846 
L 304.187385 95.56498 
L 304.187385 95.564863 
L 304.076467 95.492098 
L 303.88276 95.380995 
L 303.88276 95.381025 
L 303.771843 95.308829 
L 303.570356 95.197805 
L 303.570356 95.197835 
L 303.459638 95.129733 
L 303.459438 95.129763 
L 303.275307 95.018742 
L 303.275307 95.018772 
L 303.164589 94.94518 
L 303.164389 94.94521 
L 302.97946 94.834263 
L 302.97946 94.834292 
L 302.86974 94.774383 
L 302.868543 94.774562 
L 302.687803 94.663715 
L 302.687803 94.663596 
L 302.576885 94.589416 
L 302.383578 94.47846 
L 302.383578 94.478341 
L 302.27286 94.410252 
L 302.27266 94.410282 
L 302.092718 94.299543 
L 302.092718 94.299273 
L 301.981801 94.23032 
L 301.790488 94.119589 
L 301.790488 94.119318 
L 301.67957 94.049462 
L 301.473495 93.938463 
L 301.473495 93.938492 
L 301.362777 93.877825 
L 301.362577 93.877855 
L 301.194007 93.767476 
L 301.194007 93.766748 
L 301.083089 93.699633 
L 300.907536 93.588609 
L 300.907536 93.588639 
L 300.796618 93.528081 
L 300.589147 93.417187 
L 300.589147 93.417064 
L 300.478229 93.346775 
L 300.285121 93.236004 
L 300.285121 93.235728 
L 300.174203 93.164214 
L 299.985683 93.05319 
L 299.985683 93.053219 
L 299.874965 92.985971 
L 299.874766 92.986 
L 299.672281 92.875146 
L 299.672281 92.875022 
L 299.561563 92.815331 
L 299.561364 92.815361 
L 299.357483 92.704528 
L 299.357483 92.704403 
L 299.246964 92.637158 
L 299.246565 92.637216 
L 299.061038 92.526763 
L 299.061038 92.526173 
L 298.950719 92.467439 
L 298.95012 92.467526 
L 298.734669 92.356453 
L 298.734669 92.356482 
L 298.623951 92.288525 
L 298.623751 92.288554 
L 298.430443 92.177639 
L 298.430443 92.177512 
L 298.319725 92.122977 
L 298.319526 92.123006 
L 298.108862 92.012413 
L 298.108862 92.011974 
L 297.997945 91.9469 
L 297.779301 91.83585 
L 297.779301 91.835878 
L 297.668384 91.77208 
L 297.470488 91.661449 
L 297.470488 91.661006 
L 297.359969 91.592934 
L 297.35957 91.592992 
L 297.192795 91.48196 
L 297.192795 91.481989 
L 297.082077 91.416495 
L 297.081877 91.416524 
L 296.888569 91.305673 
L 296.888569 91.305543 
L 296.777652 91.241532 
L 296.569781 91.130528 
L 296.569781 91.130556 
L 296.459262 91.071441 
L 296.458863 91.071498 
L 296.275331 90.960501 
L 296.164413 90.901371 
L 295.959934 90.790492 
L 295.959934 90.790361 
L 295.849216 90.733624 
L 295.849016 90.733652 
L 295.653714 90.622901 
L 295.653714 90.622609 
L 295.542796 90.553149 
L 295.340312 90.442108 
L 295.229394 90.388279 
L 295.027708 90.277768 
L 295.027708 90.277313 
L 294.91679 90.219989 
L 294.730265 90.109115 
L 294.730265 90.108982 
L 294.619347 90.04817 
L 294.407088 89.937196 
L 294.407088 89.937062 
L 294.29617 89.872244 
L 294.074734 89.761713 
L 294.074734 89.761253 
L 293.963817 89.702648 
L 293.7739 89.591919 
L 293.7739 89.591621 
L 293.663182 89.535012 
L 293.662983 89.53504 
L 293.462892 89.424112 
L 293.462892 89.423976 
L 293.351974 89.365994 
L 293.143705 89.254894 
L 293.143705 89.254922 
L 293.032787 89.197005 
L 292.808758 89.086111 
L 292.808758 89.085974 
L 292.69784 89.018402 
L 292.518896 88.907491 
L 292.518896 88.907353 
L 292.408178 88.848874 
L 292.407978 88.848902 
L 292.212875 88.737937 
L 292.212875 88.737799 
L 292.102157 88.678063 
L 292.101957 88.678091 
L 291.894087 88.567067 
L 291.894087 88.567095 
L 291.783368 88.50659 
L 291.783169 88.506617 
L 291.567718 88.395628 
L 291.567718 88.395655 
L 291.457 88.335041 
L 291.4568 88.335068 
L 291.25651 88.224158 
L 291.25651 88.224018 
L 291.145592 88.163492 
L 290.934131 88.052773 
L 290.934131 88.052465 
L 290.823612 88.000331 
L 290.823213 88.000386 
L 290.609557 87.88947 
L 290.609557 87.889329 
L 290.49864 87.828427 
L 290.289971 87.717329 
L 290.289971 87.717356 
L 290.180051 87.664818 
L 290.179054 87.664953 
L 289.957418 87.553935 
L 289.957418 87.553962 
L 289.8465 87.494373 
L 289.635837 87.383355 
L 289.635837 87.383409 
L 289.524919 87.325755 
L 289.324031 87.21481 
L 289.324031 87.214667 
L 289.321238 87.214703 
L 289.213113 87.15147 
L 288.989482 87.040687 
L 288.989482 87.040373 
L 288.878565 86.980472 
L 288.675881 86.869435 
L 288.675881 86.869461 
L 288.564963 86.809974 
L 288.331957 86.698882 
L 288.331957 86.698908 
L 288.221039 86.634671 
L 287.984641 86.523823 
L 287.984641 86.523677 
L 287.874721 86.465735 
L 287.873723 86.465867 
L 287.653085 86.354801 
L 287.653085 86.354828 
L 287.542168 86.295711 
L 287.290209 86.184802 
L 287.290209 86.184655 
L 287.179292 86.125602 
L 286.959052 86.014805 
L 286.959052 86.014657 
L 286.848135 85.960032 
L 286.636075 85.849036 
L 286.636075 85.849063 
L 286.525157 85.796804 
L 286.299931 85.685786 
L 286.299931 85.685839 
L 286.189213 85.630502 
L 286.189013 85.630528 
L 285.969572 85.519482 
L 285.969572 85.519508 
L 285.858654 85.458488 
L 285.638615 85.347519 
L 285.638615 85.347545 
L 285.528296 85.293218 
L 285.527697 85.293296 
L 285.291897 85.182803 
L 285.291897 85.182299 
L 285.18098 85.130621 
L 284.960541 85.019551 
L 284.960541 85.019577 
L 284.849624 84.964991 
L 284.625993 84.854171 
L 284.625993 84.854019 
L 284.515075 84.800243 
L 284.300821 84.689652 
L 284.300821 84.689142 
L 284.189903 84.634221 
L 283.95171 84.52316 
L 283.95171 84.523186 
L 283.840792 84.469613 
L 283.614568 84.358806 
L 283.614568 84.358652 
L 283.50405 84.306389 
L 283.503651 84.306441 
L 283.277028 84.195522 
L 283.277028 84.195367 
L 283.16631 84.134228 
L 283.16611 84.134254 
L 282.914551 84.023265 
L 282.914551 84.023291 
L 282.803833 83.971261 
L 282.803633 83.971287 
L 282.563245 83.861037 
L 282.563245 83.860338 
L 282.452527 83.80606 
L 282.452328 83.806085 
L 282.210543 83.695104 
L 282.210543 83.695129 
L 282.099626 83.638975 
L 281.884972 83.528749 
L 281.884972 83.528045 
L 281.774653 83.466256 
L 281.774055 83.466332 
L 281.553018 83.355468 
L 281.553018 83.35531 
L 281.443098 83.29941 
L 281.4421 83.299535 
L 281.205303 83.188474 
L 281.205303 83.188499 
L 281.094385 83.12639 
L 280.840831 83.015576 
L 280.840831 83.015417 
L 280.729913 82.956141 
L 280.486533 82.845325 
L 280.486533 82.845165 
L 280.376015 82.786109 
L 280.375616 82.786158 
L 280.147596 82.675091 
L 280.147596 82.675115 
L 280.036679 82.619353 
L 279.794894 82.508524 
L 279.794894 82.508363 
L 279.683977 82.452888 
L 279.448576 82.341833 
L 279.448576 82.341858 
L 279.337659 82.292838 
L 279.102258 82.181997 
L 279.102258 82.181834 
L 278.99134 82.125453 
L 278.751551 82.0146 
L 278.751551 82.014437 
L 278.640633 81.963233 
L 278.420195 81.852292 
L 278.420195 81.852316 
L 278.310075 81.796996 
L 278.309277 81.797094 
L 278.078465 81.686132 
L 278.078465 81.686157 
L 277.967547 81.623289 
L 277.715389 81.512276 
L 277.715389 81.512301 
L 277.604871 81.461415 
L 277.604472 81.461464 
L 277.358298 81.35066 
L 277.358298 81.350518 
L 277.247381 81.306854 
L 277.033924 81.195782 
L 277.033924 81.195806 
L 276.923007 81.146388 
L 276.670849 81.035443 
L 276.670849 81.035467 
L 276.559931 80.985033 
L 276.317748 80.874057 
L 276.317748 80.874081 
L 276.20683 80.818398 
L 275.949087 80.707369 
L 275.949087 80.707393 
L 275.838768 80.655603 
L 275.838169 80.655675 
L 275.583019 80.544727 
L 275.583019 80.544751 
L 275.473099 80.494395 
L 275.472101 80.494514 
L 275.238496 80.383931 
L 275.238496 80.383567 
L 275.127977 80.33614 
L 275.127578 80.336187 
L 274.895968 80.225224 
L 274.895968 80.225248 
L 274.786048 80.172061 
L 274.785051 80.172179 
L 274.513741 80.061249 
L 274.513741 80.061078 
L 274.403223 80.009449 
L 274.402824 80.009496 
L 274.146876 79.898493 
L 274.146876 79.89854 
L 274.036157 79.842752 
L 274.035958 79.842775 
L 273.787191 79.731745 
L 273.787191 79.731769 
L 273.676473 79.680621 
L 273.7838 79.731772 
L 273.676274 79.680644 
L 273.430101 79.569534 
L 273.430101 79.569557 
L 273.319383 79.521113 
L 273.319183 79.521136 
L 273.060242 79.410159 
L 273.060242 79.410182 
L 272.949724 79.352754 
L 272.949325 79.3528 
L 272.67642 79.241851 
L 272.565502 79.190557 
L 272.311549 79.07961 
L 272.311549 79.079633 
L 272.20123 79.02679 
L 272.200631 79.026859 
L 271.951665 78.915759 
L 271.951665 78.915782 
L 271.841147 78.866095 
L 271.840748 78.866141 
L 271.57283 78.75564 
L 271.57283 78.755061 
L 271.461912 78.71058 
L 271.204767 78.599479 
L 271.204767 78.599501 
L 271.093849 78.551969 
L 270.863436 78.44089 
L 270.863436 78.440913 
L 270.75591 78.393362 
L 270.752518 78.393747 
L 270.466048 78.282801 
L 270.466048 78.282824 
L 270.35513 78.236418 
L 270.090205 78.12548 
L 270.090205 78.125502 
L 269.979686 78.067625 
L 269.979287 78.06767 
L 269.724536 77.956813 
L 269.724536 77.956632 
L 269.613618 77.90422 
L 269.364852 77.793951 
L 269.364852 77.793156 
L 269.254134 77.75028 
L 269.253934 77.750302 
L 268.994794 77.639199 
L 268.883877 77.591827 
L 268.631719 77.48081 
L 268.631719 77.480832 
L 268.521399 77.434567 
L 268.520801 77.434633 
L 268.274428 77.323854 
L 268.274428 77.32367 
L 268.163511 77.277025 
L 267.862876 77.166056 
L 267.862876 77.166078 
L 267.752557 77.123675 
L 267.751959 77.123741 
L 267.467084 77.012706 
L 267.467084 77.012728 
L 267.356565 76.968033 
L 267.356166 76.968076 
L 267.092837 76.856998 
L 267.092837 76.85702 
L 266.981919 76.808789 
L 266.71859 76.697956 
L 266.71859 76.697768 
L 266.609468 76.650973 
L 266.607672 76.651168 
L 266.347535 76.540452 
L 266.347535 76.540264 
L 266.238014 76.489692 
L 266.236617 76.489843 
L 265.969697 76.379264 
L 265.969697 76.378864 
L 265.858779 76.332819 
L 265.593854 76.222069 
L 265.593854 76.221879 
L 265.482936 76.16712 
L 265.229182 76.056263 
L 265.229182 76.056072 
L 265.118863 76.011587 
L 265.118265 76.011651 
L 264.862117 75.900688 
L 264.862117 75.90071 
L 264.751598 75.854304 
L 264.751199 75.854347 
L 264.459343 75.743378 
L 264.459343 75.743399 
L 264.349821 75.697275 
L 264.348425 75.697423 
L 264.09507 75.586481 
L 264.09507 75.586502 
L 263.984153 75.544787 
L 263.713841 75.434411 
L 263.713841 75.433786 
L 263.603322 75.388786 
L 263.602923 75.388828 
L 263.317251 75.277947 
L 263.317251 75.277752 
L 263.206533 75.232092 
L 263.206333 75.232113 
L 262.938814 75.121102 
L 262.938814 75.121122 
L 262.828296 75.076495 
L 262.827897 75.076537 
L 262.566961 74.965767 
L 262.566961 74.96557 
L 262.456243 74.926595 
L 262.456043 74.926616 
L 262.188924 74.815691 
L 262.188924 74.815712 
L 262.078206 74.775427 
L 262.078006 74.775447 
L 261.794927 74.664479 
L 261.794927 74.6645 
L 261.684608 74.623946 
L 261.684009 74.624007 
L 261.378188 74.512995 
L 261.378188 74.513015 
L 261.270662 74.470184 
L 261.26747 74.47029 
L 260.93372 74.359266 
L 260.93372 74.359286 
L 260.8236 74.314485 
L 260.822802 74.314566 
L 260.531344 74.203648 
L 260.420626 74.158898 
L 260.420427 74.158918 
L 260.172259 74.047881 
L 260.172259 74.047902 
L 260.062737 74.008766 
L 260.061341 74.008907 
L 259.769883 73.898533 
L 259.769883 73.897886 
L 259.658966 73.85443 
L 259.377283 73.743341 
L 259.377283 73.743361 
L 259.266964 73.702733 
L 259.266565 73.702773 
L 258.961142 73.592082 
L 258.961142 73.591877 
L 258.850624 73.555521 
L 258.850225 73.555561 
L 258.551585 73.444686 
L 258.551585 73.444481 
L 258.440668 73.400516 
L 258.127066 73.28956 
L 258.127066 73.28958 
L 258.016348 73.244661 
L 258.016149 73.244681 
L 257.71731 73.133644 
L 257.71731 73.133664 
L 257.606791 73.080075 
L 257.606392 73.080114 
L 257.335083 72.969129 
L 257.335083 72.969149 
L 257.225761 72.930865 
L 257.224165 72.93102 
L 256.89221 72.820522 
L 256.89221 72.820084 
L 256.781492 72.778276 
L 256.781293 72.778295 
L 256.461707 72.667283 
L 256.461707 72.667302 
L 256.351188 72.635319 
L 256.350789 72.635357 
L 256.046564 72.524287 
L 256.046564 72.524306 
L 255.935646 72.47904 
L 255.620249 72.368598 
L 255.620249 72.368156 
L 255.50993 72.323493 
L 255.509332 72.32355 
L 255.192937 72.212522 
L 255.192937 72.212541 
L 255.08202 72.176254 
L 254.797145 72.065999 
L 254.797145 72.06532 
L 254.686427 72.02903 
L 254.686227 72.029049 
L 254.397562 71.918067 
L 254.397562 71.918085 
L 254.287243 71.881774 
L 254.286844 71.881812 
L 253.972844 71.770935 
L 253.972844 71.770719 
L 253.862724 71.73276 
L 253.861926 71.732835 
L 253.568274 71.621981 
L 253.568274 71.621764 
L 253.457556 71.58481 
L 253.457356 71.584828 
L 253.109442 71.473881 
L 253.109442 71.4739 
L 252.998724 71.439545 
L 252.998525 71.439563 
L 252.697292 71.328814 
L 252.697292 71.328596 
L 252.586374 71.28907 
L 252.270379 71.178304 
L 252.270379 71.178084 
L 252.159461 71.145215 
L 251.864412 71.034741 
L 251.864412 71.034282 
L 251.753495 70.989988 
L 251.434308 70.878886 
L 251.434308 70.878904 
L 251.32339 70.846325 
L 250.990238 70.735333 
L 250.990238 70.735351 
L 250.880318 70.698621 
L 250.879321 70.698711 
L 250.552553 70.587892 
L 250.552553 70.587669 
L 250.441635 70.553695 
L 250.092125 70.442767 
L 250.092125 70.442785 
L 249.989586 70.411234 
L 249.981208 70.411496 
L 249.63469 70.300563 
L 249.63469 70.30058 
L 249.525368 70.271615 
L 249.523772 70.271757 
L 249.241292 70.160813 
L 249.241292 70.160831 
L 249.130973 70.127617 
L 249.130374 70.12767 
L 248.788844 70.016634 
L 248.788844 70.016651 
L 248.678525 69.979298 
L 248.677926 69.97935 
L 248.310462 69.86838 
L 248.310462 69.868397 
L 248.199943 69.831801 
L 248.199544 69.831836 
L 247.878562 69.720762 
L 247.878562 69.720779 
L 247.768043 69.68642 
L 247.767644 69.686455 
L 247.376839 69.575514 
L 247.376839 69.575532 
L 247.266121 69.538474 
L 247.265921 69.538492 
L 246.928979 69.427606 
L 246.928979 69.427623 
L 246.819458 69.397195 
L 246.818062 69.397315 
L 246.515831 69.286266 
L 246.515831 69.286283 
L 246.408106 69.248007 
L 246.405113 69.248262 
L 246.044631 69.137214 
L 246.044631 69.137231 
L 245.933714 69.10274 
L 245.614726 68.991725 
L 245.614726 68.991742 
L 245.504606 68.952428 
L 245.504008 68.952478 
L 245.140334 68.841449 
L 245.140334 68.841482 
L 245.029416 68.803495 
L 244.689083 68.692563 
L 244.689083 68.69258 
L 244.578564 68.658881 
L 244.578165 68.658914 
L 244.199529 68.547877 
L 244.199529 68.547894 
L 244.090607 68.51434 
L 244.088612 68.514505 
L 243.703393 68.403482 
L 243.703393 68.403499 
L 243.593672 68.365939 
L 243.592475 68.366037 
L 243.256929 68.255036 
L 243.256929 68.255052 
L 243.146012 68.219402 
L 242.76977 68.108393 
L 242.659052 68.071724 
L 242.658852 68.07174 
L 242.319516 67.960852 
L 242.319516 67.960868 
L 242.208599 67.924734 
L 241.841334 67.813782 
L 241.841334 67.813798 
L 241.730616 67.785984 
L 241.730416 67.786 
L 241.360159 67.675053 
L 241.360159 67.675069 
L 241.249441 67.640261 
L 241.249241 67.640277 
L 240.86881 67.52935 
L 240.86881 67.529365 
L 240.757893 67.495116 
L 240.37028 67.384216 
L 240.37028 67.384232 
L 240.25996 67.348904 
L 240.259362 67.348951 
L 239.898281 67.238079 
L 239.898281 67.238095 
L 239.787364 67.204686 
L 239.453813 67.094103 
L 239.453813 67.093588 
L 239.344292 67.064357 
L 239.342896 67.064465 
L 238.964858 66.953382 
L 238.964858 66.953397 
L 238.85414 66.920044 
L 238.853941 66.920059 
L 238.490067 66.80897 
L 238.490067 66.808985 
L 238.379149 66.775412 
L 237.974979 66.664422 
L 237.974979 66.664453 
L 237.864659 66.640268 
L 237.864061 66.640313 
L 237.506172 66.529369 
L 237.506172 66.529384 
L 237.396651 66.495773 
L 237.395255 66.495878 
L 236.970536 66.385073 
L 236.970536 66.384817 
L 236.860018 66.351303 
L 236.859619 66.351332 
L 236.445872 66.240469 
L 236.445872 66.240483 
L 236.336351 66.204196 
L 236.334955 66.204299 
L 235.938763 66.09346 
L 235.938763 66.093201 
L 235.827846 66.054841 
L 235.439036 65.943981 
L 235.439036 65.943995 
L 235.329116 65.91436 
L 235.328118 65.914432 
L 234.988184 65.803363 
L 234.988184 65.803377 
L 234.877665 65.768604 
L 234.877266 65.768633 
L 234.426614 65.657807 
L 234.426614 65.657545 
L 234.316095 65.628604 
L 234.315696 65.628633 
L 233.920502 65.517679 
L 233.920502 65.517693 
L 233.809984 65.48686 
L 233.809585 65.486888 
L 233.385265 65.376031 
L 233.385265 65.376045 
L 233.274946 65.341603 
L 233.274348 65.341645 
L 232.926433 65.230725 
L 232.926433 65.230738 
L 232.815915 65.203929 
L 232.815516 65.203957 
L 232.379426 65.093024 
L 232.379426 65.093052 
L 232.270703 65.06082 
L 232.268509 65.060972 
L 231.864138 64.950356 
L 231.864138 64.950087 
L 231.753819 64.919422 
L 231.753221 64.919463 
L 231.349848 64.808488 
L 231.349848 64.808502 
L 231.239329 64.776476 
L 231.23893 64.776503 
L 230.794462 64.665422 
L 230.794462 64.665449 
L 230.684143 64.630868 
L 230.683544 64.630908 
L 230.321067 64.520012 
L 230.321067 64.520025 
L 230.210748 64.492374 
L 230.21015 64.492414 
L 229.780245 64.38145 
L 229.669327 64.35651 
L 229.258174 64.245739 
L 229.258174 64.245463 
L 229.147256 64.209575 
L 228.744282 64.098533 
L 228.744282 64.098546 
L 228.634961 64.066653 
L 228.633365 64.066757 
L 228.187301 63.95586 
L 228.076383 63.92968 
L 227.639894 63.819005 
L 227.639894 63.818724 
L 227.528977 63.789662 
L 227.11942 63.678717 
L 227.11942 63.678729 
L 227.009899 63.647277 
L 227.008702 63.647353 
L 226.570019 63.537338 
L 226.570019 63.536757 
L 226.4593 63.506314 
L 226.459101 63.506326 
L 226.03139 63.39529 
L 226.03139 63.395303 
L 225.920672 63.375046 
L 226.026203 63.395326 
L 225.920472 63.375058 
L 225.464234 63.263988 
L 225.464234 63.264 
L 225.353716 63.236947 
L 225.353317 63.236971 
L 224.870346 63.126261 
L 224.870346 63.125972 
L 224.760825 63.100124 
L 224.759429 63.100209 
L 224.302991 62.989314 
L 224.302991 62.989326 
L 224.19347 62.959923 
L 224.192073 62.960007 
L 223.705313 62.849028 
L 223.705313 62.84904 
L 223.594395 62.821898 
L 223.148331 62.710854 
L 223.148331 62.710866 
L 223.037414 62.685933 
L 222.48522 62.574912 
L 222.48522 62.574923 
L 222.374501 62.552503 
L 222.374302 62.552515 
L 221.959159 62.441405 
L 221.959159 62.441417 
L 221.849638 62.42212 
L 221.848241 62.4222 
L 221.409159 62.311573 
L 221.409159 62.311275 
L 221.298641 62.2875 
L 221.298242 62.287523 
L 220.818065 62.176718 
L 220.818065 62.176418 
L 220.707346 62.154302 
L 220.707147 62.154313 
L 220.182283 62.043419 
L 220.182283 62.043441 
L 220.071565 62.020163 
L 219.577623 61.909616 
L 219.577623 61.909323 
L 219.467104 61.886439 
L 219.466705 61.886461 
L 218.935259 61.775351 
L 218.935259 61.775362 
L 218.824341 61.75227 
L 218.293293 61.641298 
L 218.182575 61.616062 
L 218.182376 61.616072 
L 217.653323 61.505149 
L 217.653323 61.505159 
L 217.543203 61.474184 
L 217.542405 61.474226 
L 217.048463 61.363197 
L 217.048463 61.363207 
L 216.943131 61.339438 
L 216.937545 61.339732 
L 216.461956 61.22895 
L 216.352435 61.202269 
L 216.351039 61.202341 
L 215.844129 61.09147 
L 215.844129 61.09148 
L 215.736404 61.072588 
L 215.733411 61.072742 
L 215.124362 60.961727 
L 215.124362 60.961737 
L 215.013445 60.936562 
L 214.395817 60.825679 
L 214.395817 60.825689 
L 214.286097 60.800188 
L 214.2849 60.800248 
L 213.742082 60.689663 
L 213.742082 60.689341 
L 213.635753 60.665408 
L 213.631164 60.665634 
L 213.084556 60.554731 
L 212.975035 60.531387 
L 212.973638 60.531455 
L 212.38793 60.42058 
L 212.38793 60.420589 
L 212.277411 60.399048 
L 212.277012 60.399067 
L 211.757336 60.288201 
L 211.757336 60.288211 
L 211.646817 60.272857 
L 211.646617 60.272866 
L 211.101805 60.162401 
L 211.101805 60.16208 
L 210.993879 60.141998 
L 210.990887 60.142138 
L 210.40059 60.031238 
L 210.40059 60.031248 
L 210.29087 60.014437 
L 210.289673 60.014492 
L 209.641922 59.903582 
L 209.533199 59.884456 
L 209.531004 59.884556 
L 208.954672 59.773577 
L 208.954672 59.773586 
L 208.844153 59.752923 
L 208.843754 59.752941 
L 208.286174 59.641969 
L 208.286174 59.641978 
L 208.176852 59.620332 
L 208.175256 59.620402 
L 207.595333 59.509518 
L 207.485014 59.486628 
L 207.484615 59.486645 
L 206.838859 59.375874 
L 206.730136 59.357589 
L 206.727942 59.357682 
L 206.076999 59.246809 
L 206.076999 59.246817 
L 205.966281 59.226245 
L 205.966082 59.226253 
L 205.276238 59.11556 
L 205.276238 59.115219 
L 205.166717 59.094695 
L 205.16532 59.094753 
L 204.526347 58.98375 
L 204.416228 58.96517 
L 204.41543 58.965202 
L 203.747132 58.854331 
L 203.747132 58.854339 
L 203.639206 58.837961 
L 203.636214 58.83808 
L 202.949961 58.727553 
L 202.949961 58.727568 
L 202.839044 58.710352 
L 202.163364 58.599409 
L 202.054841 58.586658 
L 202.052646 58.586743 
L 201.369984 58.475719 
L 201.259665 58.462468 
L 201.259067 58.46249 
L 200.564835 58.351533 
L 200.564835 58.351541 
L 200.455313 58.332817 
L 200.453917 58.332869 
L 199.817138 58.222419 
L 199.817138 58.22205 
L 199.706819 58.210633 
L 199.706221 58.210655 
L 198.989845 58.099746 
L 198.880324 58.078638 
L 198.879127 58.078681 
L 198.166142 57.96794 
L 198.166142 57.967947 
L 198.058018 57.949942 
L 198.055225 57.950039 
L 197.327278 57.838968 
L 197.221148 57.826812 
L 197.216361 57.826974 
L 196.456495 57.716529 
L 196.456495 57.716148 
L 196.348371 57.696855 
L 196.345578 57.696948 
L 195.587109 57.585907 
L 195.477588 57.566782 
L 195.476192 57.566828 
L 194.557531 57.455969 
L 194.557531 57.455976 
L 194.455391 57.437099 
L 194.446813 57.43737 
L 193.645852 57.326382 
L 193.645852 57.326388 
L 193.536131 57.310259 
L 193.534934 57.310296 
L 192.729585 57.19922 
L 192.729585 57.199226 
L 192.619266 57.188081 
L 192.618668 57.188099 
L 191.77741 57.077075 
L 191.77741 57.077081 
L 191.669285 57.0616 
L 191.666492 57.061682 
L 190.875506 56.950973 
L 190.875506 56.950979 
L 190.769775 56.937223 
L 190.764788 56.937365 
L 189.785482 56.826751 
L 189.785482 56.826343 
L 189.677955 56.810726 
L 189.674763 56.810815 
L 188.77266 56.700048 
L 188.77266 56.700053 
L 188.665533 56.686658 
L 188.661942 56.686754 
L 187.791958 56.576015 
L 187.791958 56.576021 
L 187.681239 56.559101 
L 186.764973 56.448315 
L 186.655052 56.434915 
L 186.654055 56.43494 
L 185.619689 56.324022 
L 185.619689 56.324027 
L 185.515354 56.309782 
L 185.508971 56.309937 
L 184.465627 56.198971 
L 184.357303 56.189769 
L 184.354909 56.189825 
L 183.167333 56.078827 
L 183.060006 56.068482 
L 183.056415 56.068563 
L 182.128777 55.957571 
L 182.021451 55.946104 
L 182.018259 55.946174 
L 180.874771 55.835201 
L 180.874771 55.83521 
L 180.770636 55.822951 
L 180.764052 55.823088 
L 179.620764 55.712095 
L 179.513437 55.702369 
L 179.510245 55.702433 
L 178.303917 55.591737 
L 178.303917 55.59174 
L 178.194595 55.586427 
L 178.193398 55.58645 
L 176.950363 55.475423 
L 176.950363 55.47543 
L 176.846627 55.462765 
L 176.839445 55.462897 
L 175.383553 55.351999 
L 175.272834 55.340079 
L 175.272635 55.340083 
L 174.095432 55.229673 
L 174.095432 55.229196 
L 173.989303 55.223194 
L 173.984914 55.223266 
L 172.411121 55.112634 
L 172.31716 55.108684 
L 172.300204 55.108947 
L 171.015475 54.998218 
L 171.015475 54.99822 
L 170.914532 54.990687 
L 170.904557 54.990832 
L 169.05766 54.879881 
L 168.950533 54.872657 
L 168.946942 54.872706 
L 167.047977 54.761814 
L 166.951622 54.755201 
L 166.93706 54.755386 
L 165.202277 54.645046 
L 165.202277 54.645049 
L 165.094751 54.641505 
L 165.091359 54.641545 
L 162.562598 54.530753 
L 162.45986 54.524168 
L 162.45188 54.524253 
L 160.468929 54.413646 
L 160.468929 54.413652 
L 160.370181 54.408406 
L 160.358011 54.408524 
L 157.258504 54.297919 
L 157.154967 54.294132 
L 157.147586 54.294196 
L 154.335347 54.183414 
L 154.226424 54.173291 
L 154.224629 54.173305 
L 150.848824 54.06248 
L 150.747881 54.057399 
L 150.738306 54.05746 
L 146.83664 53.946645 
L 146.741283 53.944454 
L 146.725922 53.944533 
L 141.670794 53.834465 
L 141.582818 53.831918 
L 141.560874 53.832003 
L 134.688573 53.72143 
L 134.680393 53.719841 
L 134.578852 53.720095 
L 118.268582 53.610042 
L 118.171629 53.606811 
L 118.158662 53.606823 
L 73.832727 53.568 
L 73.832727 53.568 
" clip-path="url(#p301434320d)" style="fill: none; stroke: #ff8c00; stroke-width: 1.5; stroke-linecap: square"/>
   </g>
   <g id="patch_3">
    <path d="M 57.6 307.584 
L 57.6 41.472 
" style="fill: none; stroke: #000000; stroke-width: 0.8; stroke-linejoin: miter; stroke-linecap: square"/>
   </g>
   <g id="patch_4">
    <path d="M 414.72 307.584 
L 414.72 41.472 
" style="fill: none; stroke: #000000; stroke-width: 0.8; stroke-linejoin: miter; stroke-linecap: square"/>
   </g>
   <g id="patch_5">
    <path d="M 57.6 307.584 
L 414.72 307.584 
" style="fill: none; stroke: #000000; stroke-width: 0.8; stroke-linejoin: miter; stroke-linecap: square"/>
   </g>
   <g id="patch_6">
    <path d="M 57.6 41.472 
L 414.72 41.472 
" style="fill: none; stroke: #000000; stroke-width: 0.8; stroke-linejoin: miter; stroke-linecap: square"/>
   </g>
   <g id="text_15">
    <!-- Precision-Recall curve for Artifact Segmentation -->
    <g transform="translate(92.436563 35.472) scale(0.12 -0.12)">
     <defs>
      <path id="DejaVuSans-2d" d="M 313 2009 
L 1997 2009 
L 1997 1497 
L 313 1497 
L 313 2009 
z
" transform="scale(0.015625)"/>
      <path id="DejaVuSans-75" d="M 544 1381 
L 544 3500 
L 1119 3500 
L 1119 1403 
Q 1119 906 1312 657 
Q 1506 409 1894 409 
Q 2359 409 2629 706 
Q 2900 1003 2900 1516 
L 2900 3500 
L 3475 3500 
L 3475 0 
L 2900 0 
L 2900 538 
Q 2691 219 2414 64 
Q 2138 -91 1772 -91 
Q 1169 -91 856 284 
Q 544 659 544 1381 
z
M 1991 3584 
L 1991 3584 
z
" transform="scale(0.015625)"/>
      <path id="DejaVuSans-66" d="M 2375 4863 
L 2375 4384 
L 1825 4384 
Q 1516 4384 1395 4259 
Q 1275 4134 1275 3809 
L 1275 3500 
L 2222 3500 
L 2222 3053 
L 1275 3053 
L 1275 0 
L 697 0 
L 697 3053 
L 147 3053 
L 147 3500 
L 697 3500 
L 697 3744 
Q 697 4328 969 4595 
Q 1241 4863 1831 4863 
L 2375 4863 
z
" transform="scale(0.015625)"/>
      <path id="DejaVuSans-41" d="M 2188 4044 
L 1331 1722 
L 3047 1722 
L 2188 4044 
z
M 1831 4666 
L 2547 4666 
L 4325 0 
L 3669 0 
L 3244 1197 
L 1141 1197 
L 716 0 
L 50 0 
L 1831 4666 
z
" transform="scale(0.015625)"/>
      <path id="DejaVuSans-53" d="M 3425 4513 
L 3425 3897 
Q 3066 4069 2747 4153 
Q 2428 4238 2131 4238 
Q 1616 4238 1336 4038 
Q 1056 3838 1056 3469 
Q 1056 3159 1242 3001 
Q 1428 2844 1947 2747 
L 2328 2669 
Q 3034 2534 3370 2195 
Q 3706 1856 3706 1288 
Q 3706 609 3251 259 
Q 2797 -91 1919 -91 
Q 1588 -91 1214 -16 
Q 841 59 441 206 
L 441 856 
Q 825 641 1194 531 
Q 1563 422 1919 422 
Q 2459 422 2753 634 
Q 3047 847 3047 1241 
Q 3047 1584 2836 1778 
Q 2625 1972 2144 2069 
L 1759 2144 
Q 1053 2284 737 2584 
Q 422 2884 422 3419 
Q 422 4038 858 4394 
Q 1294 4750 2059 4750 
Q 2388 4750 2728 4690 
Q 3069 4631 3425 4513 
z
" transform="scale(0.015625)"/>
      <path id="DejaVuSans-67" d="M 2906 1791 
Q 2906 2416 2648 2759 
Q 2391 3103 1925 3103 
Q 1463 3103 1205 2759 
Q 947 2416 947 1791 
Q 947 1169 1205 825 
Q 1463 481 1925 481 
Q 2391 481 2648 825 
Q 2906 1169 2906 1791 
z
M 3481 434 
Q 3481 -459 3084 -895 
Q 2688 -1331 1869 -1331 
Q 1566 -1331 1297 -1286 
Q 1028 -1241 775 -1147 
L 775 -588 
Q 1028 -725 1275 -790 
Q 1522 -856 1778 -856 
Q 2344 -856 2625 -561 
Q 2906 -266 2906 331 
L 2906 616 
Q 2728 306 2450 153 
Q 2172 0 1784 0 
Q 1141 0 747 490 
Q 353 981 353 1791 
Q 353 2603 747 3093 
Q 1141 3584 1784 3584 
Q 2172 3584 2450 3431 
Q 2728 3278 2906 2969 
L 2906 3500 
L 3481 3500 
L 3481 434 
z
" transform="scale(0.015625)"/>
      <path id="DejaVuSans-6d" d="M 3328 2828 
Q 3544 3216 3844 3400 
Q 4144 3584 4550 3584 
Q 5097 3584 5394 3201 
Q 5691 2819 5691 2113 
L 5691 0 
L 5113 0 
L 5113 2094 
Q 5113 2597 4934 2840 
Q 4756 3084 4391 3084 
Q 3944 3084 3684 2787 
Q 3425 2491 3425 1978 
L 3425 0 
L 2847 0 
L 2847 2094 
Q 2847 2600 2669 2842 
Q 2491 3084 2119 3084 
Q 1678 3084 1418 2786 
Q 1159 2488 1159 1978 
L 1159 0 
L 581 0 
L 581 3500 
L 1159 3500 
L 1159 2956 
Q 1356 3278 1631 3431 
Q 1906 3584 2284 3584 
Q 2666 3584 2933 3390 
Q 3200 3197 3328 2828 
z
" transform="scale(0.015625)"/>
     </defs>
     <use xlink:href="#DejaVuSans-50"/>
     <use xlink:href="#DejaVuSans-72" x="58.552734"/>
     <use xlink:href="#DejaVuSans-65" x="97.416016"/>
     <use xlink:href="#DejaVuSans-63" x="158.939453"/>
     <use xlink:href="#DejaVuSans-69" x="213.919922"/>
     <use xlink:href="#DejaVuSans-73" x="241.703125"/>
     <use xlink:href="#DejaVuSans-69" x="293.802734"/>
     <use xlink:href="#DejaVuSans-6f" x="321.585938"/>
     <use xlink:href="#DejaVuSans-6e" x="382.767578"/>
     <use xlink:href="#DejaVuSans-2d" x="446.146484"/>
     <use xlink:href="#DejaVuSans-52" x="482.230469"/>
     <use xlink:href="#DejaVuSans-65" x="547.212891"/>
     <use xlink:href="#DejaVuSans-63" x="608.736328"/>
     <use xlink:href="#DejaVuSans-61" x="663.716797"/>
     <use xlink:href="#DejaVuSans-6c" x="724.996094"/>
     <use xlink:href="#DejaVuSans-6c" x="752.779297"/>
     <use xlink:href="#DejaVuSans-20" x="780.5625"/>
     <use xlink:href="#DejaVuSans-63" x="812.349609"/>
     <use xlink:href="#DejaVuSans-75" x="867.330078"/>
     <use xlink:href="#DejaVuSans-72" x="930.708984"/>
     <use xlink:href="#DejaVuSans-76" x="971.822266"/>
     <use xlink:href="#DejaVuSans-65" x="1031.001953"/>
     <use xlink:href="#DejaVuSans-20" x="1092.525391"/>
     <use xlink:href="#DejaVuSans-66" x="1124.3125"/>
     <use xlink:href="#DejaVuSans-6f" x="1159.517578"/>
     <use xlink:href="#DejaVuSans-72" x="1220.699219"/>
     <use xlink:href="#DejaVuSans-20" x="1261.8125"/>
     <use xlink:href="#DejaVuSans-41" x="1293.599609"/>
     <use xlink:href="#DejaVuSans-72" x="1362.007812"/>
     <use xlink:href="#DejaVuSans-74" x="1403.121094"/>
     <use xlink:href="#DejaVuSans-69" x="1442.330078"/>
     <use xlink:href="#DejaVuSans-66" x="1470.113281"/>
     <use xlink:href="#DejaVuSans-61" x="1505.318359"/>
     <use xlink:href="#DejaVuSans-63" x="1566.597656"/>
     <use xlink:href="#DejaVuSans-74" x="1621.578125"/>
     <use xlink:href="#DejaVuSans-20" x="1660.787109"/>
     <use xlink:href="#DejaVuSans-53" x="1692.574219"/>
     <use xlink:href="#DejaVuSans-65" x="1756.050781"/>
     <use xlink:href="#DejaVuSans-67" x="1817.574219"/>
     <use xlink:href="#DejaVuSans-6d" x="1881.050781"/>
     <use xlink:href="#DejaVuSans-65" x="1978.462891"/>
     <use xlink:href="#DejaVuSans-6e" x="2039.986328"/>
     <use xlink:href="#DejaVuSans-74" x="2103.365234"/>
     <use xlink:href="#DejaVuSans-61" x="2142.574219"/>
     <use xlink:href="#DejaVuSans-74" x="2203.853516"/>
     <use xlink:href="#DejaVuSans-69" x="2243.0625"/>
     <use xlink:href="#DejaVuSans-6f" x="2270.845703"/>
     <use xlink:href="#DejaVuSans-6e" x="2332.027344"/>
    </g>
   </g>
   <g id="legend_1">
    <g id="patch_7">
     <path d="M 64.6 302.584 
L 185.934375 302.584 
Q 187.934375 302.584 187.934375 300.584 
L 187.934375 286.905875 
Q 187.934375 284.905875 185.934375 284.905875 
L 64.6 284.905875 
Q 62.6 284.905875 62.6 286.905875 
L 62.6 300.584 
Q 62.6 302.584 64.6 302.584 
z
" style="fill: #ffffff; opacity: 0.8; stroke: #cccccc; stroke-linejoin: miter"/>
    </g>
    <g id="line2d_14">
     <path d="M 66.6 293.004312 
L 76.6 293.004312 
L 76.6 293.004312 
L 86.6 293.004312 
L 86.6 293.004312 
" style="fill: none; stroke: #ff8c00; stroke-width: 1.5; stroke-linecap: square"/>
    </g>
    <g id="text_16">
     <!-- U-Net (AP = 0.87) -->
     <g transform="translate(94.6 296.504312) scale(0.1 -0.1)">
      <defs>
       <path id="DejaVuSans-55" d="M 556 4666 
L 1191 4666 
L 1191 1831 
Q 1191 1081 1462 751 
Q 1734 422 2344 422 
Q 2950 422 3222 751 
Q 3494 1081 3494 1831 
L 3494 4666 
L 4128 4666 
L 4128 1753 
Q 4128 841 3676 375 
Q 3225 -91 2344 -91 
Q 1459 -91 1007 375 
Q 556 841 556 1753 
L 556 4666 
z
" transform="scale(0.015625)"/>
       <path id="DejaVuSans-4e" d="M 628 4666 
L 1478 4666 
L 3547 763 
L 3547 4666 
L 4159 4666 
L 4159 0 
L 3309 0 
L 1241 3903 
L 1241 0 
L 628 0 
L 628 4666 
z
" transform="scale(0.015625)"/>
       <path id="DejaVuSans-3d" d="M 678 2906 
L 4684 2906 
L 4684 2381 
L 678 2381 
L 678 2906 
z
M 678 1631 
L 4684 1631 
L 4684 1100 
L 678 1100 
L 678 1631 
z
" transform="scale(0.015625)"/>
       <path id="DejaVuSans-37" d="M 525 4666 
L 3525 4666 
L 3525 4397 
L 1831 0 
L 1172 0 
L 2766 4134 
L 525 4134 
L 525 4666 
z
" transform="scale(0.015625)"/>
      </defs>
      <use xlink:href="#DejaVuSans-55"/>
      <use xlink:href="#DejaVuSans-2d" x="73.193359"/>
      <use xlink:href="#DejaVuSans-4e" x="109.277344"/>
      <use xlink:href="#DejaVuSans-65" x="184.082031"/>
      <use xlink:href="#DejaVuSans-74" x="245.605469"/>
      <use xlink:href="#DejaVuSans-20" x="284.814453"/>
      <use xlink:href="#DejaVuSans-28" x="316.601562"/>
      <use xlink:href="#DejaVuSans-41" x="355.615234"/>
      <use xlink:href="#DejaVuSans-50" x="424.023438"/>
      <use xlink:href="#DejaVuSans-20" x="484.326172"/>
      <use xlink:href="#DejaVuSans-3d" x="516.113281"/>
      <use xlink:href="#DejaVuSans-20" x="599.902344"/>
      <use xlink:href="#DejaVuSans-30" x="631.689453"/>
      <use xlink:href="#DejaVuSans-2e" x="695.3125"/>
      <use xlink:href="#DejaVuSans-38" x="727.099609"/>
      <use xlink:href="#DejaVuSans-37" x="790.722656"/>
      <use xlink:href="#DejaVuSans-29" x="854.345703"/>
     </g>
    </g>
   </g>
  </g>
 </g>
 <defs>
  <clipPath id="p301434320d">
   <rect x="57.6" y="41.472" width="357.12" height="266.112"/>
  </clipPath>
 </defs>
</svg>
